<?xml version="1.0" encoding="UTF-8"?>
<!-- Generator: Adobe Illustrator 26.0.3, SVG Export Plug-In . SVG Version: 6.00 Build 0)  -->
<svg xmlns="http://www.w3.org/2000/svg" xmlns:xlink="http://www.w3.org/1999/xlink" version="1.1" id="Layer_1" x="0px" y="0px" viewBox="0 0 325 102" style="enable-background:new 0 0 325 102;" xml:space="preserve">
<style type="text/css">
	.st0{fill:#070606;}
</style>
<g id="English_Black" transform="translate(0 0)">
	<g id="English_Black-2" transform="translate(58.748 50.986)">
		<g id="Group_4" transform="translate(-58.748 -50.986)">
			<path id="Path_1" d="M58.7,71.7c-20,0-36.3-11.1-36.3-24.9S38.7,22,58.7,22s36.3,11.1,36.3,24.8S78.8,71.7,58.7,71.7z M58.7,23.8     c-19,0-34.5,10.3-34.5,23s15.5,23.1,34.5,23.1s34.5-10.3,34.5-23S77.8,23.8,58.7,23.8L58.7,23.8z"></path>
			<g id="Group_1" transform="translate(10.318 10.076)">
				<path id="Path_2" class="st0" d="M2.7,23.7c-0.1,0.2-0.1,0.3-0.1,0.5c0,0.2,0,0.3,0.1,0.5l0.6,1.7l3.5-0.7      c0.1,0,0.3-0.1,0.4-0.2c0.1-0.1,0.2-0.2,0.3-0.4l0.1-0.2l0.4,0.2l-1.1,2.8l-0.4-0.2l0.2-0.5c0-0.1,0-0.1,0-0.2      c0,0,0-0.1-0.1-0.1c-0.1,0-0.2,0-0.2,0l-2.6,0.5l0.5,1.4l1.2,0.5c0.2,0.1,0.4-0.1,0.6-0.5L6.3,29l-1,2.4L5,31.2      c0.2-0.4,0.1-0.7-0.1-0.8L1,28.8c-0.2-0.1-0.4,0.1-0.6,0.5L0,29.2l1-2.4L1.4,27c-0.2,0.4-0.1,0.7,0.1,0.8l1.9,0.8l-1-2.8      c0-0.1-0.1-0.2-0.2-0.2c-0.1,0-0.1,0-0.2,0c-0.1,0-0.1,0.1-0.2,0.2L1.8,26l-0.4-0.2l1-2.4L2.7,23.7z"></path>
				<path id="Path_3" class="st0" d="M8.1,18.1l-0.3,0.5c-0.7-0.4-1.2-0.4-1.5,0.1l-1,1.4l1.5,1.1l0.5-0.7c0.2-0.3,0-0.6-0.4-1      L7.1,19L9,20.6L8.7,21c-0.5-0.3-0.9-0.4-1.1-0.2l-0.5,0.7l1.7,1.3l0.9-1.2c0.5-0.7,0.4-1.4-0.5-2.2L9.7,19l1.7,1.5l-3.1,4.2      l-0.4-0.3C8.2,24,8.2,23.7,8,23.6l-3.4-2.5c-0.2-0.1-0.4,0-0.7,0.3l-0.4-0.3L6.7,17L8.1,18.1z"></path>
				<path id="Path_4" class="st0" d="M13.2,11.5c-0.3,0.3-0.4,0.6-0.3,0.7l2.8,3.1c0.2,0.2,0.4,0.1,0.8-0.2l0.3,0.3l-2,1.8l-0.3-0.3      c0.4-0.3,0.5-0.6,0.3-0.8l-1.3-1.5l-2,1.8l1.3,1.5c0.2,0.2,0.4,0.1,0.8-0.2l0.3,0.3l-2,1.7l-0.3-0.3c0.3-0.3,0.4-0.6,0.3-0.7      l-2.8-3.1c-0.2-0.2-0.4-0.1-0.8,0.2l-0.3-0.3l2-1.7l0.3,0.3c-0.4,0.3-0.5,0.6-0.3,0.8l1.1,1.2l2-1.8L12,13      c-0.2-0.2-0.4-0.1-0.8,0.2L11,12.9l2-1.8L13.2,11.5z"></path>
				<path id="Path_5" class="st0" d="M16.7,9.2c-0.4,0.3-0.5,0.5-0.4,0.7l2.3,3.5c0.1,0.2,0.4,0.2,0.8-0.1l0.2,0.4L17.5,15l-0.2-0.4      c0.4-0.3,0.5-0.5,0.4-0.7l-2.3-3.5c-0.1-0.2-0.4-0.2-0.8,0.1l-0.3-0.4l2.2-1.4L16.7,9.2z"></path>
				<path id="Path_6" class="st0" d="M20.4,7.1c-0.5,0.3-0.7,0.5-0.6,0.7l2,3.9l1.4-0.7c0.2-0.1,0.3-0.2,0.4-0.3      c0.1-0.1,0.2-0.3,0.2-0.4c0-0.2,0-0.4,0-0.6c-0.1-0.3-0.1-0.5-0.2-0.8l0.5-0.2l0.9,2.1l-4.5,2.3l-0.2-0.4      c0.4-0.2,0.6-0.4,0.5-0.6l-1.9-3.7c-0.1-0.2-0.4-0.2-0.8,0l-0.2-0.4l2.4-1.3L20.4,7.1z"></path>
				<path id="Path_7" class="st0" d="M26.6,4.4c-0.5,0.2-0.8,0.4-0.7,0.6l1.5,4.1l1.4-0.5c0.2-0.1,0.3-0.1,0.5-0.3      c0.1-0.1,0.2-0.2,0.3-0.4c0.1-0.2,0.1-0.4,0.1-0.6c0-0.3-0.1-0.5-0.1-0.8l0.5-0.1l0.6,2.1l-4.8,1.8l-0.2-0.4      c0.4-0.2,0.6-0.4,0.5-0.6l-1.4-3.9c-0.1-0.2-0.3-0.3-0.8-0.1l-0.2-0.4l2.6-1L26.6,4.4z"></path>
				<path id="Path_8" class="st0" d="M33.2,1.8c0.4-0.1,0.8-0.1,1.2-0.1c0.4,0,0.7,0.1,1,0.3c0.3,0.2,0.6,0.4,0.8,0.8      c0.3,0.4,0.4,0.9,0.5,1.3c0.1,0.4,0.1,0.8,0.1,1.3c0,0.4-0.1,0.7-0.3,1.1c-0.2,0.3-0.5,0.6-0.8,0.8c-0.4,0.2-0.8,0.4-1.2,0.5      c-0.4,0.1-0.8,0.1-1.1,0.1c-0.3,0-0.7-0.1-1-0.3c-0.3-0.2-0.6-0.4-0.8-0.7C31.2,6.4,31.1,6,31,5.5c-0.1-0.4-0.2-0.9-0.1-1.3      c0-0.4,0.1-0.8,0.3-1.1c0.2-0.3,0.4-0.6,0.8-0.8C32.3,2.1,32.7,1.9,33.2,1.8z M33.3,2.4c-0.3,0.1-0.5,0.2-0.8,0.3      c-0.2,0.1-0.4,0.3-0.5,0.5C32,3.5,31.9,3.7,31.9,4c0,0.3,0,0.6,0.1,0.9c0.1,0.4,0.2,0.8,0.4,1.2c0.1,0.3,0.3,0.5,0.5,0.7      c0.2,0.1,0.4,0.2,0.6,0.3c0.2,0,0.5,0,0.7-0.1c0.3-0.1,0.6-0.2,0.8-0.4c0.2-0.1,0.3-0.3,0.4-0.6c0.1-0.2,0.1-0.5,0.1-0.8      c0-0.3-0.1-0.7-0.1-1c-0.1-0.4-0.2-0.8-0.4-1.1C35,3,34.8,2.8,34.6,2.6c-0.2-0.1-0.4-0.2-0.6-0.2C33.8,2.3,33.6,2.3,33.3,2.4      L33.3,2.4z"></path>
				<path id="Path_9" class="st0" d="M42.4,2.4l-0.5,0.1c-0.1-0.2-0.2-0.5-0.3-0.7c-0.1-0.2-0.3-0.3-0.5-0.4      c-0.2-0.1-0.4-0.2-0.6-0.2c-0.2,0-0.5,0-0.7,0c-0.3,0-0.6,0.1-0.9,0.3c-0.2,0.2-0.3,0.4-0.3,0.7c0,0.2,0.1,0.3,0.2,0.4      c0.1,0.1,0.3,0.2,0.5,0.2c0.2,0,0.4,0.1,0.7,0.1c0.2,0,0.5,0,0.7,0c0.3,0,0.5,0,0.8,0.1c0.2,0,0.5,0.1,0.7,0.2      c0.2,0.1,0.4,0.3,0.5,0.4c0.2,0.2,0.2,0.5,0.3,0.7c0,0.3,0,0.6-0.1,0.8c-0.1,0.2-0.2,0.4-0.4,0.6c-0.2,0.2-0.4,0.3-0.7,0.4      c-0.3,0.1-0.6,0.2-0.9,0.2c-0.3,0-0.6,0-0.9,0c-0.2,0-0.5-0.1-0.7-0.2c-0.1,0-0.2-0.1-0.3-0.1c0,0-0.1,0-0.2,0.1      c-0.1,0.1-0.1,0.2-0.1,0.3l-0.5,0.1L38,4.6l0.5-0.1c0,0.2,0.1,0.5,0.3,0.6c0.1,0.2,0.3,0.3,0.5,0.5c0.2,0.1,0.4,0.2,0.7,0.2      c0.3,0,0.6,0.1,0.8,0c0.4,0,0.7-0.2,1-0.4C41.9,5.2,42,4.9,42,4.6c0-0.1-0.1-0.2-0.1-0.3c-0.1-0.1-0.2-0.1-0.3-0.2      c-0.1,0-0.3-0.1-0.4-0.1c-0.2,0-0.3,0-0.5,0S40.2,4,40,4c-0.2,0-0.4,0-0.5,0c-0.2,0-0.4-0.1-0.7-0.1c-0.2-0.1-0.4-0.2-0.5-0.3      c-0.1-0.1-0.3-0.3-0.4-0.4c-0.1-0.2-0.2-0.4-0.2-0.7c0-0.2,0-0.4,0-0.6c0-0.2,0.1-0.4,0.3-0.6c0.2-0.2,0.4-0.3,0.6-0.4      c0.3-0.1,0.6-0.2,0.9-0.3c0.3,0,0.6,0,0.9,0c0.2,0,0.4,0.1,0.7,0.2c0.1,0,0.2,0.1,0.3,0.1c0.1,0,0.1-0.1,0.2-0.1      c0.1-0.1,0.1-0.2,0.2-0.2l0.4-0.1L42.4,2.4z"></path>
				<path id="Path_10" class="st0" d="M52.5,2.1l-0.6,0c-0.1-0.4-0.3-0.8-0.6-1.1c-0.3-0.3-0.7-0.4-1.1-0.4c-0.3,0-0.6,0-0.9,0.2      c-0.2,0.1-0.4,0.3-0.6,0.5c-0.2,0.2-0.3,0.5-0.4,0.8c-0.1,0.3-0.1,0.6-0.1,1c0,0.3,0,0.7,0.1,1c0.1,0.3,0.2,0.5,0.4,0.7      c0.2,0.2,0.4,0.3,0.6,0.4c0.7,0.3,1.4,0.2,2-0.2c0.3-0.3,0.6-0.6,0.7-1l0.5,0.2c-0.1,0.3-0.2,0.5-0.3,0.7      c-0.1,0.2-0.3,0.4-0.5,0.6c-0.2,0.2-0.5,0.3-0.7,0.4c-0.3,0.1-0.7,0.2-1,0.1c-0.4,0-0.8-0.1-1.2-0.2c-0.4-0.1-0.7-0.3-0.9-0.6      c-0.3-0.3-0.5-0.6-0.6-0.9C47,3.9,47,3.5,47,3c0-0.5,0.1-0.9,0.3-1.4c0.1-0.4,0.4-0.7,0.7-0.9c0.3-0.2,0.6-0.4,1-0.5      C49.2,0,49.6,0,50,0c0.4,0,0.7,0.1,1.1,0.2c0.3,0.1,0.5,0.3,0.7,0.4l0.2-0.5l0.6,0L52.5,2.1z"></path>
				<path id="Path_11" class="st0" d="M60.4,1.6c-0.5-0.1-0.7,0-0.7,0.3L59.1,6c0,0.2,0.2,0.4,0.6,0.4l-0.1,0.4l-2.6-0.3l0.1-0.4      c0.5,0.1,0.7,0,0.8-0.3l0.3-1.9l-2.6-0.3l-0.3,1.9c0,0.2,0.2,0.4,0.7,0.5l-0.1,0.4L53.3,6l0.1-0.4c0.5,0.1,0.7,0,0.7-0.3      l0.6-4.1c0-0.2-0.2-0.4-0.6-0.4l0.1-0.5l2.6,0.3l-0.1,0.5c-0.5-0.1-0.7,0-0.8,0.3L55.6,3l2.6,0.3l0.2-1.6c0-0.2-0.2-0.4-0.7-0.5      l0.1-0.5l2.6,0.3L60.4,1.6z"></path>
				<path id="Path_12" class="st0" d="M66.1,7.8c0,0.2,0.2,0.3,0.6,0.4l-0.1,0.4l-2.8-0.7l0.1-0.4l0.7,0.2c0.1,0,0.2,0,0.3-0.1      c0,0,0-0.1,0-0.1l-0.1-0.9l-2.3-0.6l-0.5,0.7c0,0,0,0.1,0,0.1c0,0.1,0.1,0.2,0.3,0.3l0.5,0.1l-0.1,0.4L60.5,7l0.1-0.4      c0.2,0,0.3,0.1,0.5,0.1c0.1,0,0.2,0,0.2-0.1l3.2-4.5l1.1,0.3L66.1,7.8z M62.8,5.4l1.9,0.5L64.4,3L62.8,5.4z"></path>
				<path id="Path_13" class="st0" d="M73.2,10.4c-0.1,0.2-0.2,0.4-0.5,0.5c-0.3,0.1-0.6,0.1-0.8,0c-0.3-0.1-0.6-0.3-0.7-0.6      c-0.1-0.2-0.1-0.5,0-0.8l0.2-0.5c0.1-0.3,0.2-0.6,0.2-1c-0.1-0.3-0.3-0.5-0.5-0.5L70.1,7l-0.7,1.8C69.3,9,69.5,9.3,70,9.5      l-0.2,0.4l-2.5-1l0.2-0.4c0.4,0.2,0.7,0.2,0.8-0.1l1.6-3.9c0.1-0.2-0.1-0.4-0.5-0.6l0.2-0.4l3.1,1.3C72.8,4.9,73,5,73.2,5.1      c0.2,0.1,0.4,0.3,0.5,0.4C73.9,5.7,74,5.9,74,6.1c0,0.3,0,0.5-0.1,0.8c-0.1,0.2-0.2,0.3-0.3,0.5c-0.1,0.1-0.2,0.2-0.4,0.3      c-0.1,0.1-0.3,0.1-0.4,0.1c-0.1,0-0.3,0-0.4,0c0.1,0.1,0.2,0.2,0.3,0.3c0.1,0.1,0.1,0.2,0.1,0.4c0,0.2,0,0.3,0,0.5      c0,0.2-0.1,0.4-0.2,0.6l-0.3,0.7c0,0.1-0.1,0.2,0,0.3c0,0.1,0.1,0.1,0.1,0.1c0.1,0,0.1,0,0.2,0c0.1,0,0.1-0.1,0.2-0.2L73,9.9      l0.4,0.2L73.2,10.4z M71,4.8l-0.7,1.7L71.5,7c0.2,0.1,0.5,0.1,0.7,0.1c0.2-0.1,0.4-0.3,0.5-0.6c0.2-0.4,0.1-0.9-0.3-1.1      c-0.1,0-0.1-0.1-0.2-0.1L71,4.8z"></path>
				<path id="Path_14" class="st0" d="M80,10.6l-0.5-0.2c0.3-0.7,0.2-1.2-0.3-1.5l-1.5-0.9l-0.9,1.6l0.8,0.4c0.3,0.2,0.6,0,0.9-0.5      L79,9.7l-1.3,2l-0.4-0.2c0.3-0.6,0.3-0.9,0.1-1.1L76.6,10l-1.1,1.9l1.3,0.7c0.8,0.4,1.5,0.2,2.1-0.7l0.5,0.3L78,14.1l-4.5-2.6      l0.2-0.4c0.4,0.2,0.7,0.2,0.8,0l2.1-3.6c0.1-0.2,0-0.4-0.4-0.7l0.2-0.4l4.5,2.6L80,10.6z"></path>
				<path id="Path_15" class="st0" d="M84.2,12c-0.4-0.3-0.6-0.3-0.8-0.1l-2.5,3.3c-0.1,0.2,0,0.4,0.3,0.7L81,16.3l-2.1-1.6l0.3-0.4      c0.4,0.3,0.6,0.3,0.8,0.1l2.5-3.3c0.1-0.2,0-0.4-0.3-0.7l0.3-0.4l2.1,1.6L84.2,12z"></path>
				<path id="Path_16" class="st0" d="M88,14.8c0.3,0.3,0.6,0.6,0.8,1c0.2,0.3,0.3,0.6,0.4,0.9c0,0.3,0,0.7-0.2,1      c-0.2,0.4-0.5,0.8-0.9,1.1c-0.3,0.4-0.7,0.7-1.2,0.9c-0.3,0.2-0.7,0.3-1,0.3c-0.3,0-0.7-0.1-1-0.3c-0.4-0.2-0.7-0.5-1-0.8      l-2.2-2.1l0.3-0.3c0.3,0.3,0.6,0.4,0.7,0.2l2.9-3c0.2-0.2,0.1-0.4-0.2-0.7l0.3-0.3L88,14.8z M86.7,14.4l-3.2,3.2l0.9,0.9      c0.2,0.2,0.4,0.3,0.6,0.4c0.2,0.1,0.4,0.1,0.7,0c0.3-0.1,0.5-0.2,0.7-0.4c0.3-0.2,0.5-0.4,0.8-0.7c0.2-0.2,0.5-0.5,0.6-0.7      c0.1-0.2,0.2-0.4,0.3-0.6c0-0.2,0-0.4-0.1-0.6c-0.1-0.2-0.2-0.4-0.4-0.6L86.7,14.4z"></path>
				<path id="Path_17" class="st0" d="M92.3,20.7c-0.3-0.4-0.5-0.5-0.7-0.4l-3.4,2.4c-0.2,0.1-0.2,0.4,0.1,0.8l-0.4,0.3l-1.5-2.1      l0.4-0.3c0.3,0.4,0.5,0.5,0.7,0.4l3.4-2.4c0.2-0.1,0.2-0.4-0.1-0.8l0.4-0.3l1.5,2.1L92.3,20.7z"></path>
				<path id="Path_18" class="st0" d="M96.5,29.3c-0.2-0.4-0.4-0.6-0.6-0.5L92,30.4c-0.2,0.1-0.2,0.4-0.1,0.8l-0.4,0.2l-1-2.4      l0.4-0.2c0.2,0.4,0.4,0.6,0.6,0.5l3.8-1.6l-5.2,0.3l-0.4-0.9l3.8-3.5l-3.8,1.6c-0.2,0.1-0.2,0.4-0.1,0.8l-0.4,0.2l-0.8-1.9      l0.4-0.2c0.2,0.4,0.4,0.6,0.6,0.5l3.8-1.6c0.2-0.1,0.2-0.4,0.1-0.8l0.4-0.2l0.9,2.1l-3.6,3.2L96,27l0.9,2L96.5,29.3z"></path>
			</g>
			<g id="Group_2" transform="translate(11.975 54.334)">
				<path id="Path_19" class="st0" d="M4.2,6.4C4,6.1,3.8,6,3.6,6L1,7.6l0.5,0.9c0.1,0.1,0.1,0.2,0.2,0.3C1.9,8.9,2,8.9,2.1,8.9      c0.1,0,0.3,0,0.4,0c0.2,0,0.4-0.1,0.5-0.2L3.2,9L1.8,9.7L0,6.7l0.3-0.2c0.2,0.3,0.3,0.4,0.5,0.3l2.5-1.5c0.1-0.1,0.1-0.3,0-0.5      l0.3-0.2l1,1.6L4.2,6.4z"></path>
				<path id="Path_20" class="st0" d="M5.2,13.4c-0.1,0.1,0,0.2,0.2,0.4L5.2,14l-1.2-1.5l0.2-0.2l0.3,0.4c0.1,0.1,0.1,0.1,0.2,0.1      c0,0,0,0,0-0.1L5,12.2l-1-1.3L3.4,11c0,0,0,0-0.1,0c-0.1,0.1-0.1,0.2,0,0.3l0.2,0.3l-0.2,0.2l-0.9-1.1l0.2-0.2      c0.1,0.1,0.1,0.2,0.2,0.2c0,0,0.1,0.1,0.2,0l3.6-1.2l0.5,0.6L5.2,13.4z M4.3,10.7l0.9,1.1l1-1.7L4.3,10.7z"></path>
				<path id="Path_21" class="st0" d="M11.5,14.9c-0.1-0.1-0.2-0.1-0.3-0.2c-0.1,0-0.2-0.1-0.4-0.1l-1.2,0l-0.4,2.4      c0,0.1,0,0.2,0,0.3c0,0.1,0.1,0.2,0.2,0.3l0.1,0.1l-0.2,0.2l-1.6-1.4l0.2-0.2l0.3,0.3c0,0,0.1,0.1,0.1,0.1c0,0,0.1,0,0.1,0      c0,0,0.1-0.1,0.1-0.2l0.3-1.8l-1,0l-0.6,0.7c-0.1,0.1,0,0.3,0.2,0.5L7.2,16l-1.3-1.2L6,14.6c0.2,0.2,0.4,0.3,0.5,0.1l2-2.1      c0.1-0.1,0-0.3-0.2-0.5l0.2-0.2L9.9,13l-0.2,0.2C9.4,13,9.2,13,9.1,13.1l-1,1.1l2.1,0.1c0.1,0,0.1,0,0.2-0.1c0,0,0-0.1,0-0.1      c0-0.1,0-0.1-0.1-0.2l-0.2-0.2l0.2-0.2l1.3,1.2L11.5,14.9z"></path>
				<path id="Path_22" class="st0" d="M14.5,18.3l-0.3-0.2c0.3-0.5,0.3-0.8-0.1-1.1l-1-0.7l-0.8,1.1l0.5,0.4c0.2,0.1,0.4,0,0.7-0.3      l0.3,0.2l-1,1.3l-0.3-0.2c0.2-0.4,0.3-0.6,0.1-0.7l-0.5-0.3l-0.9,1.2l0.8,0.6c0.5,0.4,1,0.2,1.5-0.4l0.3,0.3l-1,1.2L10,18.5      l0.2-0.3c0.3,0.2,0.4,0.2,0.5,0.1l1.7-2.4c0.1-0.1,0-0.3-0.2-0.5l0.2-0.3l2.9,2.1L14.5,18.3z"></path>
				<path id="Path_23" class="st0" d="M21,20.9c-0.1-0.1-0.2-0.1-0.3-0.1c-0.1,0-0.1,0-0.2,0.1l-2.6,2.6L17.2,23l0.5-2.7l-2,1.9      L15,21.9l0.8-3.5c0-0.1,0-0.1,0-0.2c-0.1-0.1-0.1-0.1-0.2-0.2l0.2-0.3l1.6,0.8l-0.2,0.3l-0.3-0.2c-0.1,0-0.1,0-0.2,0l-0.7,3l2-2      l0,0c0,0,0,0,0,0c0.1-0.1,0-0.3-0.2-0.4l0.2-0.3l1.5,0.8l-0.2,0.3l-0.3-0.2c0,0-0.1,0-0.1,0c0,0,0,0-0.1,0.1      c0,0.1,0,0.1-0.1,0.2l-0.5,2.8l2-2.1c0,0,0,0,0-0.1c0-0.1,0-0.2-0.1-0.2l-0.2-0.1l0.2-0.3l1.2,0.6L21,20.9z"></path>
				<path id="Path_24" class="st0" d="M23,21.2c0.3,0.1,0.5,0.2,0.7,0.4c0.2,0.2,0.3,0.3,0.5,0.6c0.1,0.2,0.2,0.5,0.1,0.8      c0,0.3-0.1,0.7-0.2,1c-0.1,0.3-0.3,0.5-0.5,0.8c-0.3,0.4-0.8,0.6-1.4,0.6c-0.3,0-0.6-0.1-0.9-0.2c-0.3-0.1-0.5-0.2-0.7-0.4      c-0.2-0.1-0.4-0.3-0.5-0.6C20,23.8,20,23.6,20,23.3c0-0.3,0.1-0.6,0.2-0.9c0.1-0.3,0.3-0.6,0.5-0.8c0.2-0.2,0.4-0.4,0.6-0.5      c0.2-0.1,0.5-0.2,0.8-0.2C22.3,20.9,22.7,21,23,21.2z M22.8,21.6c-0.2-0.1-0.4-0.1-0.6-0.1c-0.2,0-0.3,0-0.5,0.1      c-0.2,0.1-0.3,0.2-0.4,0.3c-0.1,0.2-0.2,0.4-0.3,0.6c-0.1,0.3-0.2,0.6-0.3,0.9c0,0.2,0,0.4,0,0.6c0,0.2,0.1,0.3,0.2,0.4      c0.1,0.1,0.3,0.2,0.4,0.3c0.2,0.1,0.4,0.1,0.6,0.1c0.2,0,0.3,0,0.5-0.1c0.2-0.1,0.3-0.2,0.4-0.4c0.1-0.2,0.2-0.4,0.3-0.6      c0.1-0.3,0.2-0.5,0.2-0.8c0-0.2,0-0.4,0-0.6c0-0.1-0.1-0.3-0.2-0.4C23.1,21.7,23,21.6,22.8,21.6z"></path>
				<path id="Path_25" class="st0" d="M27.2,22.7c0.3,0.1,0.5,0.2,0.7,0.3c0.2,0.1,0.4,0.3,0.5,0.5c0.1,0.2,0.2,0.5,0.2,0.7      c0,0.3,0,0.7-0.2,1c-0.1,0.3-0.2,0.5-0.4,0.8c-0.1,0.2-0.3,0.4-0.6,0.5c-0.2,0.1-0.5,0.2-0.8,0.2c-0.3,0-0.6,0-0.9-0.1      c-0.3-0.1-0.5-0.2-0.7-0.3c-0.2-0.1-0.4-0.3-0.5-0.5c-0.1-0.2-0.2-0.5-0.2-0.7c0-0.3,0-0.6,0.1-0.9c0.1-0.3,0.2-0.6,0.4-0.8      c0.1-0.2,0.3-0.4,0.6-0.5c0.2-0.1,0.5-0.2,0.7-0.2C26.6,22.5,26.9,22.6,27.2,22.7z M27.1,23.1c-0.2-0.1-0.4-0.1-0.6-0.1      c-0.2,0-0.3,0.1-0.5,0.2c-0.1,0.1-0.3,0.2-0.4,0.4c-0.1,0.2-0.2,0.4-0.3,0.6c-0.1,0.3-0.2,0.6-0.2,0.9c0,0.2,0,0.4,0.1,0.6      c0,0.1,0.1,0.3,0.3,0.4c0.1,0.1,0.3,0.2,0.4,0.2c0.2,0.1,0.4,0.1,0.6,0.1c0.2,0,0.3-0.1,0.5-0.2c0.1-0.1,0.3-0.3,0.4-0.4      c0.1-0.2,0.2-0.4,0.3-0.6c0.1-0.3,0.1-0.5,0.2-0.8c0-0.2,0-0.4-0.1-0.6c-0.1-0.1-0.1-0.3-0.3-0.4C27.4,23.2,27.3,23.2,27.1,23.1      L27.1,23.1z"></path>
				<path id="Path_26" class="st0" d="M31.6,24c0.3,0.1,0.6,0.1,0.8,0.3c0.2,0.1,0.4,0.2,0.5,0.4c0.1,0.2,0.2,0.4,0.2,0.6      c0,0.3,0,0.7-0.1,1c-0.1,0.3-0.2,0.7-0.3,1c-0.1,0.2-0.3,0.4-0.5,0.5c-0.2,0.1-0.4,0.2-0.7,0.2c-0.3,0-0.6,0-0.9-0.1l-2.1-0.5      l0.1-0.3c0.3,0.1,0.5,0,0.5-0.1l0.6-2.8c0-0.2-0.1-0.3-0.4-0.4l0.1-0.3L31.6,24z M30.7,24.2L30,27.3l0.9,0.2c0.2,0,0.3,0,0.5,0      c0.2,0,0.3-0.1,0.4-0.2c0.1-0.1,0.2-0.3,0.3-0.5c0.1-0.2,0.2-0.5,0.2-0.7c0.1-0.2,0.1-0.5,0.1-0.7c0-0.2,0-0.3-0.1-0.5      c-0.1-0.1-0.1-0.2-0.3-0.3c-0.1-0.1-0.3-0.2-0.5-0.2L30.7,24.2z"></path>
				<path id="Path_27" class="st0" d="M40,27.2c-0.1,0-0.2,0-0.3,0c-0.1,0-0.1,0.1-0.1,0.2c0,0.2-0.1,0.5-0.2,0.7      c-0.1,0.2-0.3,0.4-0.5,0.6c0.1,0.1,0.1,0.1,0.2,0.1c0.1,0,0.1,0.1,0.2,0.1c0.1,0,0.2,0,0.3-0.1c0.1-0.1,0.1-0.2,0.1-0.3l0-0.3      l0.3,0l0,0.3c0,0.2-0.1,0.4-0.3,0.6c-0.2,0.1-0.4,0.2-0.6,0.2c-0.1,0-0.3-0.1-0.4-0.1c-0.1-0.1-0.3-0.2-0.4-0.2      c-0.2,0.1-0.3,0.1-0.5,0.1c-0.2,0-0.4,0-0.6,0c-0.2,0-0.4-0.1-0.6-0.1c-0.2-0.1-0.3-0.1-0.5-0.3c-0.1-0.1-0.2-0.2-0.3-0.4      c-0.1-0.2-0.1-0.4-0.1-0.6c0-0.2,0.1-0.3,0.1-0.4c0.1-0.1,0.1-0.2,0.2-0.3c0.1-0.1,0.2-0.2,0.3-0.2c0.1-0.1,0.3-0.1,0.4-0.2      c-0.1-0.2-0.1-0.5-0.1-0.8c0-0.1,0.1-0.3,0.1-0.4c0.1-0.1,0.1-0.2,0.2-0.3c0.1-0.1,0.2-0.1,0.4-0.2c0.1,0,0.3,0,0.5,0      c0.2,0,0.4,0.1,0.6,0.3c0.1,0.2,0.2,0.4,0.2,0.6c0,0.1-0.1,0.3-0.1,0.4c-0.1,0.1-0.1,0.2-0.2,0.3c-0.1,0.1-0.2,0.1-0.3,0.2      c-0.1,0.1-0.2,0.1-0.4,0.1c0.1,0.3,0.2,0.5,0.3,0.8c0.1,0.3,0.3,0.5,0.5,0.7c0.2-0.1,0.3-0.3,0.4-0.4c0.1-0.2,0.2-0.4,0.2-0.6      c0-0.1,0-0.2-0.1-0.2c-0.1-0.1-0.2-0.1-0.3-0.1l0-0.3l1.4,0.2L40,27.2z M37,27.1c-0.1,0.1-0.3,0.2-0.4,0.3      c-0.1,0.1-0.2,0.3-0.2,0.4c0,0.1,0,0.2,0,0.3c0,0.1,0.1,0.2,0.1,0.3c0.1,0.1,0.1,0.1,0.2,0.2c0.1,0.1,0.2,0.1,0.3,0.1      c0.1,0,0.2,0,0.3,0c0.1,0,0.2,0,0.3-0.1c-0.2-0.2-0.4-0.5-0.5-0.7C37.2,27.6,37.1,27.3,37,27.1z M37.5,26.4      c0.1,0,0.2-0.1,0.2-0.1c0.1,0,0.1-0.1,0.2-0.1c0.1,0,0.1-0.1,0.1-0.2c0-0.1,0.1-0.1,0.1-0.2c0-0.1,0-0.2-0.1-0.3      c-0.1-0.1-0.2-0.1-0.3-0.1c-0.1,0-0.1,0-0.2,0c-0.1,0-0.1,0.1-0.1,0.1c0,0-0.1,0.1-0.1,0.1c0,0.1,0,0.1,0,0.2c0,0.1,0,0.2,0,0.3      C37.5,26.1,37.5,26.2,37.5,26.4L37.5,26.4z"></path>
				<path id="Path_28" class="st0" d="M46.7,26.8l-0.4,0c-0.1-0.3-0.2-0.5-0.4-0.7c-0.2-0.2-0.5-0.3-0.8-0.3c-0.2,0-0.4,0-0.6,0.1      c-0.2,0.1-0.3,0.2-0.4,0.3c-0.1,0.2-0.2,0.3-0.2,0.5c-0.1,0.2-0.1,0.4-0.1,0.7c0,0.2,0,0.5,0.1,0.7c0.1,0.2,0.1,0.4,0.3,0.5      c0.1,0.1,0.2,0.2,0.4,0.3c0.5,0.2,1,0.1,1.4-0.2c0.2-0.2,0.4-0.4,0.5-0.7l0.4,0.1c-0.1,0.2-0.1,0.3-0.2,0.5      c-0.2,0.3-0.5,0.6-0.9,0.7c-0.2,0.1-0.5,0.1-0.7,0.1c-0.3,0-0.6,0-0.8-0.1c-0.2-0.1-0.5-0.2-0.7-0.4c-0.2-0.2-0.3-0.4-0.4-0.6      c-0.1-0.3-0.2-0.6-0.2-0.9c0-0.3,0-0.6,0.2-0.9c0.2-0.5,0.6-0.9,1.1-1.1c0.3-0.1,0.5-0.1,0.8-0.1c0.3,0,0.5,0,0.7,0.1      c0.2,0.1,0.3,0.2,0.5,0.3l0.1-0.3h0.4L46.7,26.8z"></path>
				<path id="Path_29" class="st0" d="M50.9,26.4l-0.4,0c-0.1-0.5-0.3-0.8-0.7-0.8l-1.2,0.1l0.1,1.3l0.6,0c0.2,0,0.3-0.2,0.3-0.7      l0.3,0l0,1.7l-0.3,0c-0.1-0.4-0.2-0.7-0.4-0.6l-0.6,0l0.1,1.5l1-0.1c0.6,0,0.9-0.4,0.9-1.2l0.4,0l0,1.5l-3.6,0.2l0-0.3      c0.3,0,0.5-0.1,0.5-0.3L47.8,26c0-0.2-0.2-0.2-0.5-0.2l0-0.3l3.6-0.2L50.9,26.4z"></path>
				<path id="Path_30" class="st0" d="M55.9,24.9c-0.3,0-0.5,0.1-0.4,0.3l0.5,3.4l-1,0.1l-2.4-2.9l0.4,2.7c0,0.2,0.2,0.2,0.5,0.2      l0,0.3L52,29.1l0-0.3c0.3,0,0.5-0.1,0.4-0.3L52,25.7c0-0.2-0.2-0.2-0.5-0.2l0-0.3l1.4-0.2l2.5,3l-0.4-2.7c0-0.2-0.2-0.2-0.5-0.2      l0-0.3l1.4-0.2L55.9,24.9z"></path>
				<path id="Path_31" class="st0" d="M60.6,25.3l-0.3,0.1c-0.1-0.2-0.1-0.4-0.2-0.6c-0.1-0.1-0.1-0.2-0.2-0.3      c-0.1-0.1-0.2-0.1-0.3-0.1c-0.1,0-0.2,0-0.3,0l-0.5,0.1l0.6,3c0,0.2,0.2,0.2,0.5,0.1l0.1,0.3l-1.8,0.4l-0.1-0.3      c0.3-0.1,0.5-0.2,0.4-0.3l-0.6-3l-0.5,0.1c-0.1,0-0.2,0.1-0.3,0.1C57.1,24.9,57,24.9,57,25c0,0.1-0.1,0.3-0.1,0.4      c0,0.2,0,0.4,0,0.6l-0.3,0.1l-0.3-1.6l4-0.8L60.6,25.3z"></path>
				<path id="Path_32" class="st0" d="M65.7,25.7c0.1,0.2,0,0.3,0,0.5c-0.1,0.2-0.3,0.3-0.5,0.3c-0.2,0.1-0.4,0.1-0.6,0      c-0.2-0.1-0.3-0.2-0.3-0.4l-0.1-0.4c0-0.2-0.2-0.4-0.3-0.6c-0.1-0.1-0.3-0.1-0.5-0.1l-0.8,0.2l0.4,1.3c0,0.2,0.3,0.2,0.6,0.1      l0.1,0.3l-1.8,0.5l-0.1-0.3c0.3-0.1,0.4-0.2,0.4-0.4L61.3,24c0-0.2-0.2-0.2-0.5-0.1l-0.1-0.3l2.2-0.6c0.2,0,0.3-0.1,0.5-0.1      c0.2,0,0.3,0,0.5,0c0.1,0,0.3,0.1,0.4,0.2c0.1,0.1,0.2,0.3,0.3,0.5c0,0.1,0.1,0.2,0,0.4c0,0.1,0,0.2-0.1,0.3      c0,0.1-0.1,0.2-0.2,0.2c-0.1,0.1-0.2,0.1-0.2,0.2c0.1,0,0.2,0,0.3,0.1c0.1,0,0.2,0.1,0.2,0.1c0.1,0.1,0.1,0.2,0.2,0.2      c0.1,0.1,0.1,0.3,0.2,0.4l0.1,0.5c0,0.1,0,0.1,0.1,0.2c0,0,0.1,0,0.1,0c0,0,0.1,0,0.1-0.1c0-0.1,0-0.1,0-0.2l-0.1-0.2l0.3-0.1      L65.7,25.7z M62.1,23.6l0.4,1.2l0.9-0.2c0.2,0,0.3-0.1,0.4-0.3c0.1-0.2,0.1-0.4,0-0.5c-0.1-0.3-0.4-0.5-0.7-0.5      c-0.1,0-0.1,0-0.2,0.1L62.1,23.6z"></path>
				<path id="Path_33" class="st0" d="M70,24.2c0.1,0.1,0.2,0.1,0.5,0l0.1,0.3l-1.8,0.7l-0.1-0.3l0.4-0.2c0.1,0,0.1-0.1,0.1-0.2      c0,0,0,0,0-0.1L68.7,24l-1.6,0.6v0.6c0,0,0,0,0,0.1c0,0.1,0.1,0.1,0.3,0l0.3-0.1l0.1,0.3L66.5,26l-0.1-0.3      c0.1,0,0.2-0.1,0.3-0.2c0.1,0,0.1-0.1,0.1-0.2v-3.8l0.7-0.3L70,24.2z M67.2,24.2l1.3-0.5l-1.3-1.5L67.2,24.2z"></path>
				<path id="Path_34" class="st0" d="M71.4,20c-0.4,0.2-0.5,0.3-0.4,0.5l1.3,2.7l1-0.5c0.1-0.1,0.2-0.1,0.3-0.2      c0.1-0.1,0.1-0.2,0.2-0.3c0-0.1,0-0.3,0-0.4c0-0.2-0.1-0.4-0.1-0.5l0.3-0.1l0.5,1.4l-3.2,1.5l-0.1-0.3c0.3-0.1,0.4-0.3,0.3-0.4      l-1.2-2.6c-0.1-0.1-0.3-0.2-0.5,0l-0.1-0.3l1.7-0.8L71.4,20z"></path>
				<path id="Path_35" class="st0" d="M77.9,16.3c-0.3,0.2-0.4,0.3-0.3,0.5l1.1,1.8c0.2,0.3,0.3,0.7,0.2,1.1      c-0.1,0.4-0.4,0.7-0.7,0.9c-0.2,0.1-0.3,0.2-0.5,0.2c-0.1,0-0.3,0.1-0.5,0c-0.1,0-0.3-0.1-0.4-0.1c-0.1-0.1-0.2-0.2-0.3-0.3      c-0.1-0.1-0.1-0.2-0.1-0.4c0-0.1,0.1-0.2,0.2-0.3c0.1-0.1,0.2-0.1,0.3-0.1c0.1,0,0.2,0.1,0.2,0.2c0.1,0.1,0.1,0.2,0.1,0.3      c0,0.1-0.1,0.2-0.2,0.2c0,0,0.1,0.1,0.1,0.1c0.1,0,0.1,0,0.2,0c0.1,0,0.1,0,0.2,0c0.1,0,0.1-0.1,0.2-0.1      c0.1-0.1,0.2-0.1,0.2-0.2c0.1-0.1,0.1-0.2,0.1-0.3c0-0.1,0-0.2-0.1-0.4c-0.1-0.2-0.1-0.3-0.2-0.4l-1.1-1.8      c-0.1-0.1-0.3-0.1-0.5,0L76.2,17l1.5-1L77.9,16.3z"></path>
				<path id="Path_36" class="st0" d="M81.7,14.7l-0.3,0.2c-0.4-0.4-0.7-0.5-1-0.2l-1,0.7l0.8,1l0.5-0.4c0.2-0.1,0.1-0.4-0.1-0.7      l0.3-0.2l1,1.4l-0.3,0.2c-0.3-0.3-0.5-0.4-0.7-0.3l-0.5,0.3l0.9,1.2l0.8-0.6c0.5-0.4,0.5-0.9,0.1-1.5l0.3-0.2l0.8,1.3l-2.9,2.2      l-0.2-0.2c0.3-0.2,0.3-0.4,0.2-0.5L78.8,16c-0.1-0.1-0.3-0.1-0.5,0.1l-0.2-0.3l2.9-2.2L81.7,14.7z"></path>
				<path id="Path_37" class="st0" d="M86.8,12.9c0.1,0.1,0.2,0.3,0.2,0.4c0,0.2-0.1,0.4-0.3,0.5c-0.1,0.2-0.4,0.3-0.6,0.3      c-0.2,0-0.3-0.1-0.5-0.2l-0.3-0.3c-0.1-0.2-0.3-0.3-0.5-0.4c-0.2,0-0.4,0-0.5,0.2l-0.6,0.6l0.9,1c0.1,0.1,0.3,0,0.6-0.2l0.2,0.2      l-1.4,1.3L83.9,16c0.2-0.2,0.3-0.4,0.2-0.5l-2-2.1c-0.1-0.1-0.3-0.1-0.5,0.1l-0.2-0.2l1.7-1.6c0.1-0.1,0.3-0.2,0.4-0.3      c0.1-0.1,0.3-0.2,0.4-0.2c0.1,0,0.3,0,0.4,0c0.2,0.1,0.3,0.2,0.4,0.3c0.1,0.1,0.2,0.2,0.2,0.3c0.1,0.2,0.1,0.4,0,0.6      c0,0.1-0.1,0.2-0.1,0.3c0.1,0,0.2-0.1,0.3-0.1c0.1,0,0.2,0,0.3,0c0.1,0,0.2,0.1,0.3,0.1c0.1,0.1,0.2,0.2,0.3,0.3l0.3,0.4      c0,0,0.1,0.1,0.2,0.1c0.1,0,0.2-0.1,0.2-0.2c0,0,0,0,0,0c0-0.1,0-0.1-0.1-0.2L86.4,13l0.2-0.2L86.8,12.9z M82.7,12.7l0.9,0.9      l0.6-0.6c0.1-0.1,0.2-0.3,0.3-0.4c0-0.2-0.1-0.4-0.2-0.5c-0.2-0.3-0.5-0.3-0.8-0.1c0,0-0.1,0.1-0.1,0.1L82.7,12.7z"></path>
				<path id="Path_38" class="st0" d="M87.9,8.5l-0.2,0.3c-0.1-0.1-0.3-0.2-0.5-0.2c-0.1,0-0.3,0-0.4,0c-0.1,0-0.3,0.1-0.4,0.2      C86.2,8.9,86.1,9,86,9.2c-0.2,0.2-0.3,0.4-0.3,0.6c0,0.2,0,0.4,0.2,0.5c0.1,0.1,0.2,0.1,0.3,0.1c0.1,0,0.2-0.1,0.3-0.1      c0.1-0.1,0.3-0.2,0.4-0.3c0.1-0.1,0.3-0.2,0.4-0.3c0.1-0.1,0.3-0.2,0.4-0.3c0.1-0.1,0.3-0.2,0.5-0.2c0.2,0,0.3,0,0.5,0      c0.2,0,0.3,0.1,0.5,0.3c0.2,0.1,0.3,0.3,0.4,0.4c0.1,0.2,0.1,0.3,0.1,0.5c0,0.2-0.1,0.4-0.1,0.5c-0.1,0.2-0.2,0.4-0.4,0.5      c-0.1,0.2-0.3,0.3-0.5,0.4c-0.1,0.1-0.3,0.2-0.5,0.2C88.1,12,88,12,88,12.1c0,0,0,0.1,0,0.1c0,0.1,0,0.2,0.1,0.2l-0.2,0.3      l-1.1-1l0.2-0.3c0.1,0.1,0.3,0.2,0.4,0.2c0.2,0,0.3,0,0.5,0c0.2,0,0.3-0.1,0.5-0.2c0.2-0.1,0.3-0.2,0.4-0.4      c0.2-0.2,0.3-0.4,0.3-0.7c0-0.2-0.1-0.4-0.3-0.6c-0.1-0.1-0.1-0.1-0.2-0.1c-0.1,0-0.2,0-0.2,0.1c-0.1,0-0.2,0.1-0.3,0.2      c-0.1,0.1-0.2,0.1-0.3,0.2s-0.2,0.2-0.3,0.2c-0.1,0.1-0.2,0.2-0.3,0.2c-0.1,0.1-0.3,0.2-0.4,0.2c-0.1,0.1-0.3,0.1-0.4,0.1      c-0.1,0-0.3,0-0.4-0.1c-0.2-0.1-0.3-0.1-0.4-0.3c-0.1-0.1-0.2-0.2-0.3-0.3c-0.1-0.1-0.1-0.3-0.1-0.4c0-0.2,0-0.3,0.1-0.5      c0.1-0.2,0.2-0.4,0.4-0.6c0.1-0.2,0.3-0.3,0.4-0.4c0.1-0.1,0.3-0.2,0.4-0.2c0.1,0,0.1-0.1,0.2-0.1c0,0,0-0.1,0-0.2      c0-0.1,0-0.1,0-0.2l0.2-0.2L87.9,8.5z"></path>
				<path id="Path_39" class="st0" d="M90.2,4.9L90,5.2c-0.5-0.3-0.8-0.2-1.1,0.1l-0.7,1l1.1,0.7l0.3-0.5c0.1-0.2,0-0.4-0.3-0.7      l0.2-0.3l1.4,1l-0.2,0.3c-0.4-0.2-0.6-0.2-0.7-0.1l-0.3,0.5l1.3,0.8l0.6-0.8c0.3-0.5,0.2-1-0.4-1.5l0.2-0.3l1.2,1l-2,3l-0.3-0.2      c0.2-0.3,0.2-0.4,0.1-0.5l-2.4-1.6c-0.1-0.1-0.3,0-0.5,0.3l-0.3-0.2l2-3L90.2,4.9z"></path>
				<path id="Path_40" class="st0" d="M91.5,0.1c0,0.1-0.1,0.2-0.1,0.3c0,0.1,0,0.1,0,0.2l1.1,1.9L93.6,3c0.2,0.1,0.3-0.1,0.5-0.4      l0.3,0.1l-0.8,1.7l-0.3-0.1c0.2-0.3,0.2-0.5,0-0.6l-1.1-0.5l-2.1,0.3c-0.1,0-0.1,0-0.2,0.1c-0.1,0.1-0.1,0.1-0.1,0.2l-0.3-0.1      l0.8-1.8l0.3,0.1l-0.2,0.4c0,0.1,0,0.2,0,0.2c0,0,0.1,0,0.1,0l1.6-0.2l-0.9-1.4c0,0,0,0-0.1-0.1C91.1,1,91,1,91,1.2l-0.1,0.2      l-0.3-0.1L91.2,0L91.5,0.1z"></path>
			</g>
			<path id="Path_41" d="M58.7,93.8C26.4,93.8,0,72.7,0,46.9S26.4,0,58.7,0s58.8,21,58.8,46.9S91.1,93.8,58.7,93.8z M58.7,1.8     C27.3,1.8,1.8,22,1.8,46.9S27.3,92,58.7,92s56.9-20.2,56.9-45.1S90.1,1.8,58.7,1.8L58.7,1.8z"></path>
			<path id="Path_42" d="M58.7,24.9c-18.4,0-33.4,9.9-33.4,22s15,22,33.4,22s33.4-9.9,33.4-22S77.2,24.9,58.7,24.9z M51.8,55.4H41.7     v-2h1.1c0.6,0,0.9-0.2,0.9-0.6c0-0.2-0.1-0.5-0.2-0.7l-3.6-6L37,48.6v3.7c0,0.7,0.7,1.1,2.2,1.1v2h-9.3v-2c1.4,0,2.2-0.4,2.2-1.1     V40.4c0-0.7-0.7-1.1-2.2-1.1v-2h9.3v2c-1.4,0-2.2,0.4-2.2,1.1v5.2l5.7-4.8c0.2-0.2,0.4-0.5,0.4-0.8c0-0.2-0.1-0.4-0.2-0.6     c-0.2-0.2-0.5-0.3-0.7-0.2h-0.7v-2h8.6v2c-0.6,0-1.2,0.1-1.7,0.3c-0.6,0.2-1.1,0.5-1.5,0.9l-3.5,2.9l5.7,8.8     c0.2,0.4,0.5,0.7,0.9,1c0.4,0.2,0.8,0.3,1.3,0.3h0.5L51.8,55.4z M67.9,52c-0.4,0.7-0.9,1.4-1.5,2c-0.7,0.6-1.5,1.1-2.3,1.4     c-1.1,0.4-2.2,0.5-3.3,0.5c-1.2,0-2.5-0.2-3.6-0.6c-2.3-0.7-4.1-2.4-4.9-4.6c-0.5-1.3-0.8-2.7-0.7-4.1c0-1.5,0.2-2.9,0.7-4.3     c0.4-1.1,1.1-2.1,1.9-3c0.8-0.8,1.8-1.4,2.8-1.8c1.1-0.4,2.2-0.6,3.4-0.6c1.1,0,2.2,0.1,3.2,0.4c0.8,0.2,1.5,0.6,2.1,1.1l0.6-1.2     h2.4v6l-2.5,0.2c-0.2-1.1-0.7-2.2-1.5-3c-0.8-0.7-1.9-1.1-3-1.1c-1.5-0.1-3,0.6-3.9,1.8c-0.9,1.6-1.3,3.3-1.2,5.1     c0,1,0.1,2,0.4,3c0.2,0.7,0.5,1.4,1,2c0.4,0.5,0.9,0.9,1.5,1.2c0.6,0.3,1.2,0.4,1.8,0.4c1.3,0.1,2.5-0.2,3.5-0.9     c0.9-0.7,1.6-1.7,1.9-2.9l2.2,0.6C68.6,50.5,68.3,51.3,67.9,52L67.9,52z M70.6,55.4v-2c1.4,0,2.2-0.4,2.2-1.1V40.4     c0-0.7-0.7-1.1-2.2-1.1v-2h9.8v2c-1.8,0-2.7,0.4-2.7,1.1v12.5h4.2c0.9,0,1.8-0.3,2.5-1c0.7-1.1,1.1-2.3,1.1-3.6l2.2,0.2l-0.6,7     L70.6,55.4z"></path>
			<ellipse id="Ellipse_1" class="st0" cx="105.1" cy="48.4" rx="1.5" ry="1.5"></ellipse>
			<ellipse id="Ellipse_2" class="st0" cx="12.1" cy="48.4" rx="1.5" ry="1.5"></ellipse>
			<g id="Group_3" transform="translate(42.78 96.539)">
				<path id="Path_43" class="st0" d="M4,1.8l-0.4,0c0-0.6-0.1-0.9-0.6-0.9L1.9,0.6L1.7,1.9L2.3,2c0.2,0,0.4-0.2,0.5-0.6l0.3,0.1      L2.8,3.2L2.4,3.1c0-0.5,0-0.7-0.2-0.7L1.6,2.3L1.4,3.8l1,0.2c0.6,0.1,1-0.2,1.2-1L4,3.1L3.6,4.6L0,4l0-0.3      c0.3,0.1,0.5,0,0.5-0.2L1,0.6c0-0.2-0.1-0.3-0.4-0.3L0.6,0l3.6,0.6L4,1.8z"></path>
				<path id="Path_44" class="st0" d="M8.2,2.4l-0.4,0c0-0.2,0-0.3-0.1-0.5C7.7,1.8,7.6,1.7,7.5,1.6C7.4,1.5,7.3,1.4,7.1,1.3      C7,1.3,6.8,1.2,6.6,1.2c-0.2,0-0.5,0-0.7,0.1C5.8,1.3,5.7,1.5,5.7,1.7c0,0.1,0,0.2,0.1,0.3c0.1,0.1,0.2,0.2,0.3,0.2      c0.1,0.1,0.3,0.1,0.4,0.2c0.2,0,0.3,0.1,0.5,0.1c0.2,0.1,0.3,0.1,0.5,0.2C7.7,2.8,7.8,2.9,7.9,3c0.1,0.1,0.2,0.2,0.3,0.4      c0.1,0.2,0.1,0.4,0.1,0.6c0,0.2-0.1,0.4-0.2,0.6C8,4.6,7.9,4.7,7.7,4.8C7.6,4.9,7.4,5,7.2,5C7,5,6.8,5,6.6,5C6.4,5,6.2,5,6,4.9      C5.8,4.8,5.6,4.7,5.5,4.6c0,0-0.1-0.1-0.2-0.1c0,0-0.1,0-0.1,0.1C5.1,4.6,5.1,4.7,5,4.8l-0.4,0l0.2-1.5h0.4c0,0.2,0,0.3,0.1,0.5      C5.3,3.9,5.4,4,5.6,4.1C5.7,4.2,5.8,4.3,6,4.4c0.2,0.1,0.4,0.1,0.6,0.1c0.2,0,0.5,0,0.7-0.1c0.2-0.1,0.3-0.3,0.3-0.6      c0-0.1,0-0.2-0.1-0.2C7.5,3.6,7.4,3.6,7.3,3.5C7.3,3.5,7.2,3.4,7.1,3.4c-0.1,0-0.2-0.1-0.4-0.1S6.4,3.2,6.3,3.2      C6.2,3.1,6.1,3.1,6,3.1C5.8,3,5.7,2.9,5.5,2.8C5.4,2.8,5.3,2.7,5.2,2.6C5.1,2.5,5.1,2.3,5,2.2c0-0.2,0-0.3,0-0.5      c0-0.1,0.1-0.3,0.1-0.4C5.2,1.2,5.3,1.1,5.4,1c0.1-0.1,0.3-0.2,0.5-0.2c0.2,0,0.4-0.1,0.7,0c0.2,0,0.4,0.1,0.6,0.1      C7.3,0.9,7.5,1,7.6,1.1c0.1,0,0.1,0.1,0.2,0.1c0.1,0,0.1,0,0.2-0.1C8,1.1,8,1,8.1,1l0.3,0L8.2,2.4z"></path>
				<path id="Path_45" class="st0" d="M13.2,3h-0.3c0-0.2,0-0.4,0-0.6c0-0.1-0.1-0.3-0.1-0.4c-0.1-0.1-0.1-0.2-0.2-0.2      c-0.1,0-0.2-0.1-0.3-0.1l-0.5,0l-0.2,3.1C11.5,4.9,11.6,5,12,5l0,0.3l-1.8-0.1l0-0.3c0.3,0,0.5-0.1,0.5-0.2l0.2-3.1l-0.5,0      c-0.1,0-0.2,0-0.3,0c-0.1,0-0.2,0.1-0.2,0.2C9.6,1.9,9.6,2.1,9.6,2.2C9.5,2.4,9.5,2.6,9.4,2.8l-0.3,0l0.1-1.7l4.1,0.2L13.2,3z"></path>
				<path id="Path_46" class="st0" d="M14.3,5c0,0.2-0.2,0.4-0.4,0.4c-0.2,0-0.4-0.2-0.4-0.4c0-0.1,0.1-0.2,0.1-0.3      c0.2-0.2,0.4-0.2,0.6,0c0,0,0,0,0,0C14.3,4.8,14.3,4.9,14.3,5z"></path>
				<path id="Path_47" class="st0" d="M19.2,1.6c0,0.1,0,0.2,0,0.3s0,0.1,0,0.2l0.1,2.7C19.2,5,19.4,5,19.8,5l0,0.3l-2.1,0.1l0-0.3      c0.5,0,0.7-0.1,0.7-0.3l-0.1-2.3l-0.7,0l0-0.3c0.5,0,0.9-0.3,1-0.7L19.2,1.6z"></path>
				<path id="Path_48" class="st0" d="M21.4,4.7c0.1,0.1,0.2,0.2,0.3,0.2C21.8,5,22,5,22.1,5c0.1,0,0.3,0,0.4-0.1      c0.1-0.1,0.2-0.2,0.3-0.3c0.1-0.2,0.1-0.3,0.1-0.5c0-0.3,0-0.5,0-0.8c-0.2,0.3-0.6,0.6-1,0.5c-0.2,0-0.3,0-0.5-0.1      c-0.3-0.1-0.5-0.3-0.6-0.6c-0.1-0.1-0.1-0.3-0.1-0.4c0-0.2,0-0.3,0-0.5c0-0.2,0.1-0.3,0.2-0.4c0.1-0.1,0.3-0.2,0.4-0.3      c0.2-0.1,0.5-0.1,0.7-0.2c0.2,0,0.4,0,0.6,0.1c0.2,0.1,0.4,0.2,0.5,0.3c0.1,0.2,0.3,0.4,0.3,0.6c0.1,0.3,0.1,0.6,0.2,0.9      c0,0.2,0,0.5,0,0.7c0,0.2-0.1,0.4-0.2,0.6c-0.1,0.2-0.3,0.3-0.5,0.4c-0.2,0.1-0.5,0.2-0.7,0.2c-0.2,0-0.4,0-0.5,0      c-0.2,0-0.3-0.1-0.4-0.2C21.1,5,21,4.9,20.9,4.8c-0.1-0.1-0.1-0.2-0.1-0.3c0-0.1,0-0.2,0.1-0.3c0.1-0.1,0.2-0.1,0.3-0.1      c0.1,0,0.2,0,0.3,0.1c0.1,0.1,0.1,0.2,0.1,0.3c0,0.1,0,0.2-0.1,0.2C21.5,4.7,21.4,4.7,21.4,4.7z M22.1,1.8      c-0.2,0-0.4,0.1-0.5,0.2c-0.1,0.2-0.2,0.4-0.2,0.7c0,0.1,0,0.3,0.1,0.4c0,0.1,0.1,0.2,0.2,0.3c0.1,0.1,0.1,0.1,0.2,0.1      c0.1,0,0.2,0,0.3,0c0.2,0,0.4-0.1,0.5-0.2c0.1-0.2,0.2-0.4,0.2-0.7c0-0.1,0-0.3-0.1-0.4c0-0.1-0.1-0.2-0.2-0.3      c-0.1-0.1-0.1-0.1-0.2-0.1C22.3,1.8,22.2,1.8,22.1,1.8z"></path>
				<path id="Path_49" class="st0" d="M26.7,2.7c0.3,0,0.5,0.1,0.7,0.3c0.4,0.4,0.4,1,0.1,1.4c0,0-0.1,0.1-0.1,0.1      c-0.1,0.1-0.3,0.2-0.5,0.3c-0.2,0.1-0.4,0.1-0.6,0.1c-0.2,0-0.4,0-0.6,0c-0.2,0-0.3-0.1-0.5-0.1c-0.1-0.1-0.3-0.2-0.4-0.3      c-0.1-0.1-0.2-0.3-0.2-0.4c0-0.2,0-0.4,0.1-0.6C25,3.2,25.2,3.1,25.5,3c-0.1,0-0.2-0.1-0.3-0.1c-0.1,0-0.2-0.1-0.2-0.2      c-0.1-0.1-0.1-0.1-0.2-0.2c0-0.1-0.1-0.2-0.1-0.3c0-0.1,0-0.3,0.1-0.4c0.1-0.1,0.1-0.2,0.3-0.3c0.1-0.1,0.3-0.2,0.4-0.2      c0.4-0.1,0.7-0.2,1.1-0.1c0.2,0,0.3,0.1,0.4,0.1c0.1,0.1,0.2,0.1,0.3,0.2c0.1,0.1,0.1,0.3,0.2,0.4c0,0.2,0,0.3-0.1,0.5      C27.1,2.5,26.9,2.6,26.7,2.7z M25.8,3.1c-0.2,0.1-0.3,0.2-0.4,0.3c-0.1,0.2-0.1,0.3-0.1,0.5c0,0.2,0.1,0.4,0.3,0.5      c0.2,0.1,0.4,0.2,0.7,0.1c0.6-0.1,0.8-0.3,0.8-0.7c0-0.1-0.1-0.2-0.2-0.3c-0.1-0.1-0.2-0.1-0.3-0.2c-0.1,0-0.3-0.1-0.4-0.1      C26.1,3.2,25.9,3.2,25.8,3.1z M26.3,2.6c0.1-0.1,0.3-0.1,0.3-0.3c0.1-0.1,0.1-0.3,0.1-0.4c0-0.1,0-0.1-0.1-0.2      c0-0.1-0.1-0.1-0.1-0.2c-0.1,0-0.1-0.1-0.2-0.1c-0.1,0-0.2,0-0.3,0c-0.2,0-0.4,0.1-0.5,0.2c-0.1,0.1-0.1,0.3-0.1,0.4      c0,0.1,0,0.2,0.1,0.2c0.1,0.1,0.1,0.1,0.2,0.2c0.1,0,0.2,0.1,0.3,0.1C26.1,2.6,26.2,2.6,26.3,2.6z"></path>
				<path id="Path_50" class="st0" d="M29.4,3.9c0.1,0.1,0.2,0.1,0.3,0.2c0.2,0,0.3,0,0.5,0c0.1,0,0.3-0.1,0.4-0.1      c0.1-0.1,0.2-0.2,0.2-0.3c0.1-0.2,0.1-0.3,0.1-0.5c0-0.3,0-0.5-0.1-0.8c-0.2,0.4-0.5,0.6-1,0.6c-0.2,0-0.3,0-0.5,0      c-0.1,0-0.3-0.1-0.4-0.2c-0.1-0.1-0.2-0.2-0.3-0.3c-0.1-0.1-0.1-0.3-0.1-0.4c0-0.2,0-0.3,0-0.5c0-0.2,0.1-0.3,0.2-0.4      c0.1-0.1,0.2-0.3,0.4-0.4c0.2-0.1,0.5-0.2,0.7-0.2c0.2,0,0.4,0,0.6,0c0.2,0,0.4,0.1,0.5,0.3c0.2,0.2,0.3,0.3,0.4,0.6      c0.1,0.3,0.2,0.6,0.2,0.9c0,0.2,0,0.5,0,0.7c0,0.2-0.1,0.4-0.2,0.6C31.3,3.8,31.2,4,31,4.1c-0.2,0.1-0.5,0.2-0.7,0.3      c-0.2,0-0.4,0-0.5,0c-0.2,0-0.3-0.1-0.4-0.1C29.2,4.2,29,4.1,29,4c-0.1-0.1-0.1-0.2-0.2-0.3c0-0.1,0-0.2,0.1-0.3      c0.1-0.1,0.2-0.1,0.3-0.2c0.1,0,0.2,0,0.3,0.1c0.1,0.1,0.1,0.2,0.1,0.3c0,0.1,0,0.2,0,0.2C29.5,3.9,29.4,3.9,29.4,3.9z       M29.8,0.9c-0.2,0-0.4,0.1-0.5,0.3c-0.1,0.2-0.2,0.5-0.1,0.7c0,0.1,0.1,0.3,0.1,0.4c0,0.1,0.1,0.2,0.2,0.2      c0.1,0.1,0.2,0.1,0.2,0.1c0.1,0,0.2,0,0.3,0c0.2,0,0.4-0.1,0.5-0.3c0.1-0.2,0.2-0.4,0.1-0.7c0-0.1-0.1-0.3-0.1-0.4      c0-0.1-0.1-0.2-0.2-0.3c-0.1-0.1-0.2-0.1-0.2-0.1C30,0.9,29.9,0.9,29.8,0.9L29.8,0.9z"></path>
			</g>
		</g>
	</g>
</g>
<g id="Hebrew_Black-2" transform="translate(85.512 44.41)">
	<g id="Group_14" transform="translate(-85.512 -44.41)">
		<g id="Group_9" transform="translate(38.586 27.183)">
			<path id="Path_101" d="M135,17.7c-0.2-1.6,0.1-3.2,0.8-4.6c-0.6-0.2-1.1-0.6-1.5-1.1c0.6-0.8,1-1.8,1.2-2.7h0.2     c0.1,0.5,0.5,0.8,1,0.9c1.3,0.4,2.6-0.5,4.5-0.3c1.1,0.1,2.1,0.7,2.7,1.6c0.6,1,1.1,2.6,0.2,5.8c-0.3,1-0.5,2.1-0.6,3.2     c-2.7-0.6-5.5-0.6-8.1-0.1C135.4,19.4,135.2,18.5,135,17.7z M136.6,17.6c2.3-0.4,4.7-0.4,7,0c0.3-1.1,0.3-2.4-0.1-3.5     c-0.4-0.8-1.2-1.3-2.1-1.4c-2-0.3-3.2,0.6-5.2,0.4C135.8,15,135.9,16.8,136.6,17.6z"></path>
			<path id="Path_102" d="M147.9,15.3c0.2-0.4,0.3-0.7,0.3-1.2c0-0.7-0.6-1.3-1.3-1.2c0,0,0,0-0.1,0c-1.1,0-1.9-0.1-2.2-0.8     c0.6-0.8,0.9-1.8,0.9-2.8h0.2c0.3,0.7,1.1,1,1.8,0.8c0.8-0.2,1.6,0.3,1.9,1.1c0,0.1,0,0.2,0,0.3c0,1.4-0.4,2.8-1.2,4L147.9,15.3z     "></path>
			<path id="Path_103" d="M155,10.4c1.8,0,3.6-0.3,5.4-0.8l0.1,0.2c-0.7,0.7-1.1,1.7-1.2,2.6c-0.5,0.1-0.9,0.2-1.4,0.3     c-0.6,0.7-0.9,1.7-0.9,2.7c0,0.6,0.2,1.2,0.6,1.6c0.4,0.4,1,0.7,1.6,0.8c-1.1,0.6-1.9,1.6-2.3,2.7h-0.2c-0.6-0.9-1-2-1.1-3.1     c0-1.7,0.6-3.3,1.7-4.6c-1.2,0.2-2.3,0.3-3.5,0.3c-1.4,0.1-2.9-0.4-4.1-1.2c0.9-0.6,1.7-1.6,2.1-2.6     C152.7,10,153.8,10.4,155,10.4z"></path>
			<path id="Path_104" d="M166.8,20.5c-0.3-1.5,0-3,0.7-4.3c0.3-0.7,0.5-1.4,0.5-2.2c-0.1-0.8-0.8-1.3-1.5-1.3c0,0,0,0-0.1,0     c-1.6,0-3,0.6-4.5,0.3c-0.7-0.1-1.3-0.6-1.6-1.3c0.6-0.8,1-1.7,1.2-2.6h0.2c0.1,0.6,0.6,1.1,1.2,1.1c1.1,0.2,3.1-0.4,4.5-0.2     c1.1,0.1,1.5,0.8,1.6,1.9c0,1.1-0.1,2.3-0.4,3.4c-0.4,1.2-0.2,2.5,0.6,3.6c-0.9,0.3-1.6,0.9-2,1.7L166.8,20.5z"></path>
			<path id="Path_105" d="M177.6,20.4c-0.2-1.4,0.1-2.9,0.9-4.2c0.4-0.7,0.5-1.4,0.5-2.2c-0.1-0.7-0.7-1.3-1.9-1.3     c-1.6,0-3.1,0.4-4.5,0.3c-0.5,0.8-0.8,1.8-0.7,2.7c0,0.9,0.6,1.7,1.4,2.1c-1,0.5-1.7,1.4-1.9,2.5H171c-0.4-0.9-0.7-1.9-0.7-2.8     c-0.1-1.6,0.5-3.3,1.6-4.5c-0.1,0-0.1,0-0.2,0c-0.8-0.1-1.5-0.6-1.9-1.3c0.6-0.7,1.1-1.6,1.3-2.6h0.2c0.1,0.7,0.7,1.1,1.4,1.1     c1.3,0.2,3.6-0.4,5.2-0.2c1,0,1.8,0.8,1.8,1.8c0,0,0,0.1,0,0.1c0,1.1-0.1,2.3-0.5,3.4c-0.4,1.2-0.1,2.6,0.7,3.6     c-0.9,0.3-1.7,0.8-2.2,1.6L177.6,20.4z"></path>
			<path id="Path_106" d="M187,16.6c-0.1-1.3,0.3-2.5,1.1-3.5c-0.8-0.1-1.4-0.6-1.7-1.3c0.6-0.8,0.9-1.7,1.1-2.6h0.2     c0.1,0.6,0.6,1.1,1.3,1.1c1.2,0.2,3.5-0.4,5-0.2c1,0,1.8,0.9,1.8,1.8c0.1,1.1,0,2.3-0.3,3.4c-0.3,1.2,0,2.5,0.7,3.6     c-0.8,0.3-1.5,0.9-1.9,1.6H194c-0.3-1.4-0.1-2.9,0.6-4.2c0.3-0.7,0.4-1.4,0.3-2.2c-0.1-0.7-0.7-1.3-1.8-1.3     c-1.6,0-3.2,0.4-4.6,0.3c-0.4,0.5-0.7,1.2-0.7,1.9c-0.1,0.7,0.1,1.4,0.4,2c0.3,0.5,0.8,1,1.3,1.2c-0.4,0.6-0.7,1.4-0.7,2.1     c-0.7-0.3-1.4-0.4-2.1-0.4c-0.8-0.1-1.5,0.2-2.1,0.7l-0.2-0.2c0.5-0.7,0.8-1.5,0.8-2.3c0.5-0.4,1.2-0.6,1.9-0.5     C187,17.2,187,16.9,187,16.6z"></path>
			<path id="Path_107" d="M199.8,15.3c0,1.2,0.4,2.4,1.3,3.3c-1,0.3-1.8,1-2.3,2h-0.2c-0.2-1.2-0.2-2.4-0.1-3.6     c0.2-1.3,0.6-2.5,1.3-3.6c-0.7,0-1.3-0.1-2-0.3c-0.8-0.2-1.4-0.7-1.7-1.4c0.7-0.7,1.1-1.6,1.2-2.5l0.2,0c0.3,0.8,0.8,0.9,1.8,1     c0.3,0,0.7,0.1,1,0.3c0.8,0.6,0.5,1.9,0,3C200,14,199.9,14.6,199.8,15.3z"></path>
			<path id="Path_108" d="M202.6,9.2c0.1,0.6,0.6,1,1.3,1c1.2,0.2,3.4-0.4,4.8-0.2c0.9,0,1.6,0.7,1.6,1.6c0,0.1,0,0.2,0,0.3     c-0.2,2.5-0.6,4.9-2.3,6.8c-1.4,1.3-3.3,1.9-5.1,1.7c0.8-0.8,1.3-1.8,1.5-2.9c1.7,0.2,3.8,0,4.5-1.2c0.4-0.7,0.5-1.4,0.5-2.2     c-0.1-0.7-0.6-1.3-1.7-1.3c-1.7,0-2.9,0.6-4.5,0.3c-0.8-0.1-1.4-0.6-1.8-1.3c0.6-2.3,0.8-4.7,0.7-7.2c0.4,0.2,0.8,0.3,1.2,0.3     c0.4,0,0.9-0.1,1.2-0.4l0.2,0c-0.1,1-0.1,2,0.2,3c-0.5,0.6-1.3,0.8-2,0.6c-0.2,0-0.4-0.1-0.6-0.2C202.5,8.4,202.5,8.8,202.6,9.2z     "></path>
			<path id="Path_109" d="M214,15.3c0.2-0.4,0.3-0.7,0.3-1.2c0-0.7-0.6-1.3-1.3-1.2c0,0,0,0-0.1,0c-1.1,0-1.9-0.1-2.2-0.8     c0.6-0.8,0.9-1.8,0.9-2.8h0.2c0.3,0.7,1.1,1,1.8,0.8c0.8-0.2,1.7,0.3,1.9,1.1c0,0.1,0,0.2,0,0.3c0,1.4-0.4,2.8-1.2,4L214,15.3z"></path>
			<path id="Path_110" d="M224.2,20.5c-0.3-1.5,0-3,0.8-4.2c0.4-0.7,0.5-1.4,0.5-2.2c-0.1-0.7-0.7-1.3-1.9-1.3     c-1.9,0-3.4,0.6-5.2,0.3c-0.8-0.1-1.5-0.6-1.9-1.3c0.6-0.7,1.1-1.6,1.3-2.6h0.2c0.1,0.7,0.7,1.1,1.4,1.1c1.3,0.2,3.4-0.4,5-0.2     c1,0,1.8,0.8,1.9,1.8c0,0,0,0.1,0,0.1c0,1.1-0.1,2.3-0.5,3.4c-0.3,1.3,0,2.6,0.8,3.6c-0.9,0.3-1.7,0.8-2.2,1.6L224.2,20.5z      M219.6,15.2c-0.6,0.4-0.9,1.2-0.9,1.9c0,0.5,0.4,1.2,1.7,1.5c-1.1,0.2-2,0.9-2.5,1.8h-0.2c-0.5-0.6-0.8-1.3-0.8-2.1     c0-1.3,0.8-2.5,2.5-3.5L219.6,15.2z"></path>
			<path id="Path_111" d="M234.9,16.2c0.4-0.7,0.6-1.4,0.5-2.2c-0.1-0.7-0.6-1.3-1.7-1.3c-1.7,0-3.2,0.6-4.8,0.3     c-0.7-0.1-1.4-0.6-1.7-1.3c0.6-0.8,1-1.6,1.3-2.6h0.2c0,0.6,0.6,1.1,1.2,1.1c1.2,0.2,3.3-0.4,4.7-0.2c0.9,0,1.6,0.7,1.6,1.6     c0,0.1,0,0.2,0,0.3c-0.1,2-0.5,3.9-1.4,5.7c-0.6,1.2-1.7,2.1-3,2.5c0.1-0.9-0.1-1.8-0.6-2.6C232.6,17.5,234.3,17.2,234.9,16.2z      M230.2,14.2c-0.4,0.8-0.6,1.7-0.6,2.6c0.1,1.4,1.1,2.6,1,4c-0.3,1.4-0.9,2.7-1.9,3.6l-0.2-0.1c0.5-1.1,0.6-2.5,0.1-3.6     c-0.5-0.8-0.7-1.8-0.6-2.7c0.2-1.5,1-2.9,2.1-3.9L230.2,14.2z"></path>
			<path id="Path_112" d="M156.8,26.2c1.8,0,3.6-0.3,5.4-0.8l0.1,0.2c-0.7,0.7-1.1,1.7-1.2,2.6c-0.5,0.1-0.9,0.2-1.4,0.3     c-0.6,0.7-0.9,1.7-0.9,2.7c0,0.6,0.2,1.2,0.6,1.6c0.4,0.4,1,0.7,1.6,0.8c-1.1,0.6-1.9,1.6-2.3,2.7h-0.2c-0.6-0.9-1-2-1-3.1     c0-1.7,0.6-3.3,1.7-4.6c-1.2,0.2-2.3,0.3-3.5,0.3c-1.4,0.1-2.9-0.4-4.1-1.2c0.9-0.6,1.7-1.6,2.1-2.6     C154.5,25.9,155.7,26.3,156.8,26.2z"></path>
			<path id="Path_113" d="M166,31.1c0,1.2,0.4,2.4,1.3,3.3c-1,0.3-1.8,1-2.3,2h-0.2c-0.2-1.2-0.2-2.4-0.1-3.6     c0.2-1.3,0.6-2.5,1.3-3.6c-0.7,0-1.3-0.1-2-0.3c-0.8-0.2-1.4-0.7-1.7-1.4c0.7-0.7,1.1-1.6,1.2-2.5l0.2,0c0.3,0.8,0.8,0.9,1.8,1     c0.3,0,0.7,0.1,1,0.3c0.8,0.6,0.5,1.9,0,3C166.2,29.8,166,30.5,166,31.1z"></path>
			<path id="Path_114" d="M169.9,25.1c0.1,0.7,0.3,1.4,0.8,1.9c0.7,0.9,1.7,1.6,2.7,2c1.2,0.5,2.4,1.2,3.4,2     c0.1-0.2,0.2-0.5,0.2-0.8c0-0.7-0.5-1.4-1.2-1.6c-0.9-0.4-1.5-0.8-1.7-1.5c0.4-0.7,0.7-1.4,0.9-2.1l0.2,0     c0.2,0.7,0.7,1.2,1.4,1.4c0.9,0.2,1.5,1.1,1.5,2c0,1.1-0.4,2.2-1.1,3c0.6,0.7,0.9,1.5,0.8,2.4c0,1-0.5,1.9-1.3,2.5l-0.2-0.2     c0.2-0.2,0.3-0.6,0.3-0.9c-0.1-0.7-0.4-1.2-1-1.6c-0.9-0.8-1.9-1.4-3-1.9c-1.1-0.5-2.2-1.1-3.1-1.9c-0.2,0.3-0.3,0.6-0.2,1     c0,0.7,0.3,1.4,1,1.9c1,0.6,2.1,1,3.3,1.2c-0.5,0.7-0.8,1.5-1.1,2.3c-0.6-0.3-1.3-0.4-2-0.4c-0.8,0-1.6,0.2-2.3,0.7l-0.2-0.2     c0.4-0.5,0.7-1,0.9-1.6c-0.5-0.7-0.8-1.5-0.8-2.3c0.1-1,0.5-2,1.1-2.7c-0.6-0.7-1-1.5-1.1-2.4c0.6-0.6,1.1-1.4,1.3-2.2     L169.9,25.1z"></path>
			<path id="Path_115" d="M182.5,31.1c0,1.2,0.4,2.4,1.3,3.3c-1,0.3-1.8,1-2.3,2h-0.2c-0.2-1.2-0.2-2.4-0.1-3.6     c0.2-1.3,0.6-2.5,1.3-3.6c-0.7,0-1.3-0.1-2-0.3c-0.8-0.2-1.4-0.7-1.7-1.4c0.7-0.7,1.1-1.6,1.2-2.5l0.2,0c0.3,0.8,0.8,0.9,1.8,1     c0.3,0,0.7,0.1,1,0.3c0.8,0.6,0.5,1.9,0,3C182.6,29.8,182.5,30.5,182.5,31.1z"></path>
			<path id="Path_116" d="M188.1,31.1c0,1.2,0.4,2.4,1.3,3.3c-1,0.3-1.8,1-2.3,2h-0.2c-0.2-1.2-0.2-2.4-0.1-3.6     c0.2-1.3,0.6-2.5,1.3-3.6c-0.7,0-1.3-0.1-2-0.3c-0.8-0.2-1.4-0.7-1.7-1.4c0.7-0.7,1.1-1.6,1.2-2.5l0.2,0c0.3,0.8,0.8,0.9,1.8,1     c0.3,0,0.7,0.1,1,0.3c0.8,0.6,0.5,1.9,0,3C188.2,29.8,188.1,30.5,188.1,31.1z"></path>
			<path id="Path_117" d="M197.9,32.1c0.4-0.7,0.6-1.4,0.5-2.2c-0.1-0.7-0.6-1.3-1.7-1.3c-1.7,0-3.2,0.6-4.8,0.3     c-0.7-0.1-1.4-0.6-1.7-1.3c0.6-0.8,1-1.6,1.3-2.6h0.2c0,0.6,0.6,1.1,1.2,1.1c1.2,0.2,3.3-0.4,4.7-0.2c0.9,0,1.6,0.7,1.6,1.6     c0,0.1,0,0.2,0,0.3c-0.1,2-0.5,3.9-1.4,5.7c-0.6,1.2-1.7,2.1-3,2.5c0.1-0.9-0.1-1.8-0.6-2.6C195.6,33.3,197.3,33,197.9,32.1z      M193.2,30c-0.4,0.8-0.6,1.7-0.6,2.6c0.1,1.4,1.1,2.6,1,4c-0.3,1.4-0.9,2.7-1.9,3.6l-0.2-0.1c0.5-1.1,0.6-2.5,0.1-3.6     c-0.5-0.8-0.7-1.8-0.6-2.7c0.2-1.5,1-2.9,2.1-3.9L193.2,30z"></path>
			<path id="Path_118" d="M202.9,31.2c0.2-0.4,0.3-0.7,0.3-1.2c0-0.7-0.6-1.3-1.3-1.2c0,0,0,0-0.1,0c-1.1,0-1.9-0.1-2.2-0.8     c0.6-0.8,0.9-1.8,0.9-2.8h0.2c0.3,0.7,1.1,1,1.8,0.8c0.8-0.2,1.7,0.3,1.9,1.1c0,0.1,0,0.2,0,0.3c0,1.4-0.4,2.8-1.2,4L202.9,31.2z     "></path>
			<path id="Path_119" d="M206,25.1c0.1,0.6,0.6,1,1.3,1c1.2,0.2,3.4-0.4,4.8-0.2c0.9,0,1.6,0.7,1.6,1.6c0,0.1,0,0.2,0,0.3     c-0.2,2.5-0.6,4.9-2.3,6.8c-1.4,1.3-3.3,1.9-5.1,1.7c0.8-0.8,1.3-1.8,1.5-2.9c1.7,0.2,3.8,0,4.5-1.2c0.4-0.7,0.5-1.4,0.5-2.2     c-0.1-0.7-0.6-1.3-1.7-1.3c-1.7,0-2.8,0.6-4.4,0.3c-0.8-0.1-1.4-0.6-1.8-1.3c0.6-2.3,0.8-4.7,0.7-7.2c0.4,0.2,0.8,0.3,1.2,0.3     c0.4,0,0.9-0.1,1.2-0.4l0.2,0c-0.1,1-0.1,2,0.2,3c-0.5,0.6-1.3,0.8-2,0.6c-0.2,0-0.4-0.1-0.6-0.2C205.9,24.2,205.9,24.7,206,25.1     z"></path>
		</g>
		<g id="Group_11" transform="translate(63.373 14.332)">
			<g id="Group_10" transform="translate(0 0)">
				<path id="Path_120" d="M138.8,7.7c-0.1,0.5-0.1,0.8-0.2,1.3c-0.9,0.2-1.3,0.3-2.1,0.6c0.1-0.5,0.1-0.8,0.2-1.3      C137.5,8,138,7.9,138.8,7.7z"></path>
				<path id="Path_121" d="M146,8.3c-0.1,0.5-0.3,1-0.6,1.4c-0.2-0.9-0.3-1.4-0.6-2.3c0-0.2-0.1-0.4-0.2-0.6      c-0.1-0.1-0.2-0.2-0.4-0.2c-0.5,0.1-0.8,0.1-1.3,0.2c0.3,0.5,0.5,1.1,0.7,1.6c0,0.4-0.1,0.8-0.2,1.2c-0.7,0.1-1.1,0.2-1.8,0.4      c0.1-0.5,0.2-0.8,0.3-1.3c0.3-0.1,0.5-0.1,0.8-0.2c-0.2-0.5-0.5-1.1-0.8-1.6c-0.3,0.1-0.4,0.1-0.7,0.1c0.1-0.7,0.3-1.4,0.7-2      c0.1,0.2,0.2,0.4,0.4,0.6c0.9-0.2,1.4-0.3,2.3-0.4c0.3-0.1,0.6,0,0.7,0.3c0.1,0.2,0.2,0.5,0.3,0.7C145.8,7.1,145.9,7.5,146,8.3z      "></path>
				<path id="Path_122" d="M148,6.4l0.2,1.6c-0.1,0.5-0.4,0.9-0.7,1.3l-0.3-2c0-0.2-0.1-0.4-0.1-0.4c0-0.2-0.1-0.3-0.3-0.5      c-0.3-0.2-0.6-0.4-1-0.6c0.2-0.5,0.4-0.9,0.6-1.3c0.4,0.2,0.8,0.5,1.1,0.9C147.9,5.6,148,6,148,6.4z"></path>
				<path id="Path_123" d="M152,7.6c-0.2,0.5-0.4,0.9-0.8,1.3c-0.1-0.9-0.2-1.4-0.3-2.3c-0.1-0.6-0.4-0.9-0.9-0.8      c-0.7,0.1-1,0.1-1.6,0.2c0.1-0.7,0.5-1.4,0.9-2c0,0.2,0.1,0.3,0.1,0.4c0,0.1,0.1,0.2,0.1,0.3c0.4,0,0.6-0.1,1.1-0.1      c0.3-0.1,0.7,0.1,0.9,0.4c0.2,0.2,0.2,0.5,0.3,0.8C151.9,6.4,152,6.8,152,7.6z"></path>
				<path id="Path_124" d="M157.6,5.1c0,0.6-0.1,1.2-0.3,1.7c-0.2,0.5-0.6,0.9-1.1,1.2c-0.4,0.3-0.9,0.5-1.4,0.5      c-0.2,0-0.4,0-0.6-0.1C154.1,8.2,154,8,154,7.8c-0.3-0.8-0.5-1.3-0.9-2.1c-0.1-0.3-0.4-0.7-0.7-0.9c0.3-0.5,0.5-0.7,0.8-1.2      c0.3,0.5,0.5,1,0.7,1.5c0.2,0.4,0.2,0.6,0.4,1c0.2-0.2,0.3-0.4,0.3-0.7c0-0.3-0.1-0.6-0.2-0.8c0.3-0.4,0.5-0.7,0.9-1.1      c0.1,0.4,0.2,0.8,0.3,1.2c0,0.8-0.4,1.5-1,2l0.1,0.4c0,0.1,0.1,0.2,0.3,0.2c0.3,0,0.6-0.1,0.9-0.3c0.3-0.1,0.6-0.3,0.7-0.6      c0-0.1,0-0.3,0-0.4c0-0.5-0.1-0.9-0.3-1.4c0.4-0.5,0.5-0.7,0.9-1.2C157.4,4,157.6,4.5,157.6,5.1z"></path>
				<path id="Path_125" d="M161.9,5.8c-0.1,0.9-0.4,1.7-0.9,2.4c-1.1,0-1.6,0-2.7,0c0.2-0.5,0.3-0.7,0.5-1.2c0.6,0,0.9,0,1.5,0      c0.3,0,0.5-0.2,0.5-0.7c0-0.2,0-0.5-0.2-0.7c-0.1-0.2-0.3-0.3-0.5-0.3c-0.7,0-1.1,0-1.9,0c0.2-0.7,0.6-1.3,1.1-1.9      c0,0.2,0,0.4,0.1,0.6c0.4,0,0.6,0,1,0c0.4,0,0.8,0.2,1,0.6C161.8,4.9,161.9,5.4,161.9,5.8z"></path>
				<path id="Path_126" d="M166.6,5.7c-0.1,0.8-0.1,1.2-0.1,2c-0.2,0.3-0.5,0.6-0.9,0.8c0-1,0-1.5,0.1-2.5c0-0.2,0-0.3,0-0.5      c-0.1-0.1-0.2-0.2-0.4-0.2c-1.1-0.1-1.7-0.1-2.8-0.1c0.4-0.7,0.9-1.3,1.4-1.8c0,0.2,0,0.4,0,0.6c0.7,0,1.1,0,1.8,0.1      c0.3,0,0.7,0.2,0.8,0.5C166.7,5,166.7,5.4,166.6,5.7z M163.8,7.5c-0.3,0.3-0.6,0.6-0.9,0.9l0.1-1.8c0.3-0.4,0.6-0.7,0.9-1      C163.9,6.4,163.9,6.8,163.8,7.5L163.8,7.5z"></path>
				<path id="Path_127" d="M173.2,4.9c-0.3,0.5-0.4,0.7-0.7,1.2l-0.3,0L172,8.1c-0.3,0.4-0.6,0.7-1,0.9c0.2-1.3,0.2-1.9,0.4-3.1      c-0.9-0.1-1.3-0.1-2.1-0.2c0.3-0.7,0.7-1.3,1.3-1.7c0,0.2,0,0.4,0,0.6c0.5,0.1,0.7,0.1,1.2,0.1c0.2-0.2,0.5-0.4,0.8-0.5      l-0.1,0.6C172.7,4.8,172.9,4.9,173.2,4.9z"></path>
				<path id="Path_128" d="M176.7,6.8c-0.1,0.5-0.2,0.9-0.5,1.3c-0.5,0.4-1.1,0.7-1.7,0.9c-0.7,0.2-1.3,0.4-2,0.5      c0.2-0.5,0.4-0.8,0.6-1.3c0.3,0,0.7,0,1.1-0.1c-0.1-0.9-0.4-1.8-0.9-2.6c0.5-0.4,0.7-0.7,1.2-1.1c0.2,0.6,0.3,1.3,0.4,1.9      c0.1,0.5,0.1,1,0.1,1.5c0.1-0.1,0.3-0.1,0.4-0.2c0.1-0.1,0.2-0.2,0.3-0.4c0-0.5,0-1-0.2-1.4c0.5-0.4,0.7-0.7,1.2-1.1      C176.8,5.5,176.8,6.1,176.7,6.8z"></path>
				<path id="Path_129" d="M178.9,7.5L178.6,9c-0.3,0.4-0.7,0.7-1.1,1c0.1-0.8,0.2-1.2,0.4-2c0-0.1,0.1-0.3,0.1-0.5      c0-0.2,0-0.4-0.1-0.5c-0.2-0.3-0.5-0.6-0.7-0.9c0.3-0.4,0.7-0.7,1.1-1.1c0.3,0.4,0.6,0.8,0.8,1.2C179.1,6.7,179.1,7.1,178.9,7.5      z"></path>
				<path id="Path_130" d="M184.6,8.3c-0.3,0.4-0.5,0.6-0.8,1.1c-0.9-0.2-1.3-0.3-2.1-0.5c0.3-0.4,0.5-0.6,0.8-1.1      C183.3,8,183.7,8.1,184.6,8.3z"></path>
			</g>
		</g>
		<g id="Group_12" transform="translate(54.431 66.445)">
			<path id="Path_131" d="M138.5,11.4c0,0.8-0.6,1.6-1.8,2.3l-0.2,0c0.3-0.4,0.4-0.7,0.4-0.8c0.2-0.3,0.2-0.6,0.2-0.9     c0-0.2,0-0.3-0.1-0.4c-0.4-0.3-0.8-0.6-1.2-0.9l1-1.4c0.5,0.4,1,0.8,1.5,1.3C138.4,10.8,138.5,11.1,138.5,11.4z"></path>
			<path id="Path_132" d="M142.1,10.6c-0.2,0.5-0.4,0.9-0.6,1.4c-0.3-0.3-0.6-0.5-0.9-0.7c0.2,0.9,0.5,1.8,1,2.5     c-0.2,0.6-0.5,1.1-0.7,1.7c-0.5-1-0.9-2.1-1.2-3.2c0.1-0.4,0.3-0.8,0.5-1.2c-0.3-0.2-0.7-0.3-1.1-0.4c0.2-0.5,0.6-1,0.9-1.4     C140.8,9.5,141.5,10,142.1,10.6z"></path>
			<path id="Path_133" d="M146.7,14c-0.2,0.6-0.6,1.1-1.1,1.5l0-2.8c0-0.8-0.3-1.1-0.9-1.1h-2c0.3-0.9,0.8-1.7,1.4-2.3     c0,0.2,0,0.4,0,0.4c0,0.1,0.1,0.3,0.1,0.4h1.3c0.4,0,0.8,0.2,1,0.6c0.2,0.3,0.2,0.6,0.2,1L146.7,14z"></path>
			<path id="Path_134" d="M151.8,11.6c0,0.6-0.1,1.2-0.3,1.7c-0.5,0.6-1.2,1.1-1.9,1.5c-0.8,0.4-1.6,0.7-2.4,0.9l0.5-1.7     c0.4-0.1,0.9-0.2,1.3-0.3c-0.3-1.1-0.8-2.1-1.5-3l1.2-1.6c0.3,0.7,0.6,1.5,0.8,2.3c0.2,0.6,0.3,1.2,0.4,1.8l0.5-0.3     c0.2-0.1,0.3-0.3,0.3-0.5c-0.1-0.6-0.3-1.2-0.6-1.7l1.2-1.6C151.7,9.9,151.8,10.8,151.8,11.6z"></path>
			<path id="Path_135" d="M158.7,11.3c0,0.7-0.1,1.4-0.4,2.1c-0.3,0.6-0.8,1.1-1.4,1.4c-0.6,0.3-1.2,0.5-1.8,0.5     c-0.3,0-0.5,0-0.7-0.2c-0.1-0.2-0.2-0.4-0.3-0.7l-0.9-2.6c-0.1-0.4-0.4-0.8-0.7-1.2l1.1-1.3c0.3,0.6,0.6,1.2,0.7,1.9l0.4,1.3     c0.3-0.2,0.5-0.5,0.5-0.9c0-0.4-0.1-0.7-0.2-1l1.1-1.3c0.1,0.5,0.2,1,0.2,1.5c0,1-0.6,1.9-1.4,2.4l0.1,0.5c0,0.1,0.2,0.2,0.3,0.2     c0.4,0,0.8-0.1,1.1-0.3c0.4-0.1,0.7-0.4,0.9-0.7c0-0.2,0.1-0.3,0.1-0.5c0-0.6-0.1-1.2-0.4-1.7l1.1-1.4     C158.5,9.9,158.7,10.6,158.7,11.3z"></path>
			<path id="Path_136" d="M162.6,10.6c-0.2,0.5-0.4,0.9-0.6,1.4c-0.3-0.3-0.6-0.5-0.9-0.7c0.2,0.9,0.5,1.8,1,2.5     c-0.2,0.6-0.5,1.1-0.7,1.7c-0.5-1-0.9-2.1-1.2-3.2c0.1-0.4,0.3-0.8,0.5-1.2c-0.3-0.2-0.7-0.3-1.1-0.4c0.2-0.5,0.6-1,0.9-1.4     C161.4,9.5,162,10,162.6,10.6z"></path>
			<path id="Path_137" d="M167.8,10l-0.6,1.5h-0.4v2.6c-0.3,0.5-0.6,1-1.1,1.3v-3.9h-2.6c0.3-0.9,0.7-1.6,1.4-2.3     c0,0.3,0.1,0.5,0.1,0.8h1.4c0.3-0.3,0.6-0.5,0.9-0.8V10H167.8z"></path>
			<path id="Path_138" d="M174.5,10.8c0,0.8-0.2,1.7-0.6,2.4c-0.7,1.2-1.9,2-3.3,2.1l0.8-1.7c0.4-0.1,0.9-0.2,1.3-0.4     c0.4-0.3,0.6-0.7,0.5-1.2c0-0.3-0.1-0.5-0.3-0.5h-1.8c-0.3,0-0.5,0-0.5-0.1c-0.1-0.2-0.1-0.3-0.1-0.5c0-0.1,0-0.3,0-0.5     c0-0.2,0-0.4,0-0.5c0-0.2,0-0.3-0.1-0.4c-0.1-0.1-0.1-0.1-0.2-0.2l1-1.4c0.3,0.5,0.4,1,0.3,1.6v0.3c0,0.1,0.1,0.2,0.2,0.2h2.1     c0.2,0,0.4,0.1,0.5,0.2C174.4,10.4,174.5,10.6,174.5,10.8z"></path>
			<path id="Path_139" d="M179.1,14c-0.2,0.6-0.6,1.1-1.1,1.5l0-2.8c0-0.8-0.3-1.1-0.9-1.1h-2c0.3-0.9,0.8-1.7,1.4-2.3     c0,0.2,0,0.4,0,0.4c0,0.1,0.1,0.3,0.1,0.4h1.3c0.4,0,0.8,0.2,1,0.6c0.2,0.3,0.2,0.6,0.2,1L179.1,14z"></path>
			<path id="Path_140" d="M185.5,11.5c0,0.8-0.3,1.5-0.7,2.2c-0.3,0.5-0.6,0.9-1.1,1.1c-0.5,0.3-1,0.4-1.5,0.4     c-0.3,0-0.6-0.1-0.8-0.3c-0.1-0.2-0.2-0.4-0.2-0.6l-0.6-2.6c-0.1-0.4-0.3-0.7-0.6-0.9l1.3-1.6c0.3,0.7,0.5,1.4,0.6,2.1l0.3,1.8     c0.1,0.4,0.3,0.6,0.6,0.6c0.6,0,1.1-0.2,1.5-0.6c0.1-0.2,0.1-0.5,0.1-0.7c0-0.3,0-0.5-0.2-0.8c-0.1-0.2-0.3-0.4-0.6-0.4     c-0.4,0.1-0.8,0.2-1.2,0.4c0-0.5,0.2-1.1,0.4-1.5c0.4-0.3,0.8-0.4,1.3-0.4c0.4,0,0.9,0.2,1.1,0.5C185.3,10.6,185.5,11,185.5,11.5     z"></path>
			<path id="Path_141" d="M189,12.7c0,0.4,0,0.7-0.1,1.1c-0.1,0.4-0.3,0.9-0.5,1.3h-2.2l0.4-1.5h1.3c0-0.1,0-0.2,0-0.3     c0-0.4-0.1-0.9-0.2-1.3c-0.4-0.4-0.9-0.7-1.4-1l1-1.5c0.6,0.4,1.1,0.9,1.5,1.5C188.9,11.5,189,12.1,189,12.7z"></path>
			<path id="Path_142" d="M194.1,11.6c0,0.6-0.1,1.2-0.3,1.7c-0.5,0.6-1.2,1.1-1.9,1.5c-0.8,0.4-1.6,0.7-2.4,0.9L190,14     c0.4-0.1,0.9-0.2,1.3-0.3c-0.3-1.1-0.8-2.1-1.5-3l1.2-1.6c0.3,0.7,0.6,1.5,0.8,2.3c0.2,0.6,0.3,1.2,0.4,1.8l0.5-0.3     c0.2-0.1,0.3-0.3,0.3-0.5c-0.1-0.6-0.3-1.2-0.6-1.7l1.2-1.6C193.9,9.9,194.1,10.8,194.1,11.6z"></path>
			<path id="Path_143" d="M200.2,11c0,1-0.2,2-0.8,2.9c-0.3,0.4-0.6,0.7-1,1c-0.4,0.3-0.8,0.4-1.2,0.4c-0.4,0-0.8-0.3-1-0.9     l-0.9-2.8h-0.8c0.2-0.9,0.7-1.7,1.3-2.3l0.3,0.8h3.4c0.2,0,0.5,0.1,0.6,0.3C200.2,10.5,200.2,10.7,200.2,11z M199,12     c0-0.4-0.1-0.5-0.4-0.5h-2l0.6,1.8c0.1,0.2,0.2,0.3,0.3,0.3c0.4,0,0.8-0.2,1-0.4C198.8,12.9,199,12.5,199,12L199,12z"></path>
			<path id="Path_144" d="M203.2,11.9l0,2c-0.3,0.6-0.6,1.1-1.1,1.5l0-2.5c0-0.3,0-0.5,0-0.6c0-0.2-0.1-0.4-0.2-0.6     c-0.3-0.3-0.7-0.7-1.1-0.9c0.3-0.5,0.6-1.1,1-1.5c0.5,0.4,0.9,0.8,1.2,1.2C203.2,10.9,203.3,11.4,203.2,11.9z"></path>
		</g>
		<g id="Group_13">
			<path id="Path_145" d="M145.8,49.7c-0.1,0-0.3,0-0.4,0c-0.6,0.1-1.1,0.7-1.1,1.4c0,0.1,0,0.2,0,0.3c0.2,0.6,0.7,1.1,1.4,1.1     c0.1,0,0.2,0,0.3,0c0.6-0.1,1.1-0.7,1.1-1.3c0-0.1,0-0.3,0-0.4C147,50.2,146.5,49.7,145.8,49.7z"></path>
			<path id="Path_146" d="M138,49.7c-0.1,0-0.2,0-0.3,0c-0.6,0.1-1.1,0.7-1.1,1.4c0,0.1,0,0.3,0.1,0.4c0.2,0.6,0.7,1,1.3,1     c0.1,0,0.2,0,0.3,0c0.6-0.1,1.1-0.7,1.1-1.3l0-0.3C139.2,50.2,138.6,49.7,138,49.7z"></path>
			<path id="Path_147" d="M131.6,48.2v0.3c0,0.3,0,0.6,0.1,0.9c0.2,1,1,1.7,2,1.7c0.3,0,0.6-0.1,0.9-0.2c0.9-0.4,1.4-1.4,1.3-2.4     c0-0.6-0.1-1.2-0.3-1.8c-0.9-2.5-1.4-3.8-1.4-3.9c-0.6-2-1-4-1.1-6.1c0-1.2,0.3-2.4,0.8-3.5h0v0c-0.1,0.8-0.1,1.3-0.1,1.4     c0,1.1,0.2,2.1,0.7,3.1c0.3,0.6,0.9,1,1.5,1.2v0.6c0,0.1,0,0.2,0,0.3c0,1.5,0.3,2.9,0.7,4.3c1.4,3.3,3.3,4.9,5.6,4.9h0.2     c0.8,0,1.6-0.2,2.3-0.6c1.3-0.9,2.1-2.4,2.1-3.9c-0.1-1.3-0.3-2.5-0.8-3.7c0.6-1.1,0.9-2.4,0.9-3.6c0-1.8-0.5-3.6-1.2-5.2     c-0.6-1.4-1.8-2.6-3.2-3.2c-0.1,0-0.2-0.5-0.2-1.6c0-0.5,0-0.9,0.1-1.4c0.3-1.9,0.8-2.9,1.5-2.9h0.1c0.6,0.1,0.9,0.7,0.9,1.6     c0,0.3,0,0.8-0.1,1.6c0,0.9,0.2,1.7,0.6,2.5c0.5,0.8,1.3,1.4,2.2,1.7c0-0.1,0-0.2-0.1-0.2c-0.4-0.5-0.6-1.1-0.6-1.8     c0-0.5,0-1.6,0.1-3.2c0-0.6-0.1-1.2-0.3-1.8c-0.4-1-1-1.4-1.7-1.4H145l-0.1,0c0,0,0,0,0,0h-0.2c-0.3,0-0.6,0.1-0.8,0.2     c-1.3,1.1-2,2.9-1.9,4.6v0.8c0,0.4,0,0.8,0.1,1.3c-0.7-0.2-1.4-0.3-2.2-0.3c-1.4,0-2.8,0.5-4,1.4c-2.1,1.7-3.3,4.3-3.1,7     c0.1,2.6,0.6,5.1,1.5,7.5c0.7,1.3,1.1,2.7,1.3,4.1v0.2c0,0.2,0,0.4-0.1,0.6c-0.4,1-0.9,1.5-1.7,1.5c-0.8,0-1.2-0.5-1.2-1.4v-0.3     l0.1-2.2c0.1-1.5-0.6-3-1.9-3.9c0.5,0.8,0.7,1.7,0.8,2.7C131.7,47.1,131.6,48,131.6,48.2z M146.2,43.3v0.2c0,0.5-0.1,1.1-0.3,1.6     c-0.7,1.3-2.1,2.1-3.5,1.9c-1.7,0-3.3-0.8-4.3-2.2c-1.1-1.6-1.8-3.5-1.8-5.5v-0.4l0.2,0h0.4c0.2,0,0.4,0,0.6-0.1     c0.9-0.4,1.5-1.3,1.4-2.2v-0.2h-0.1c0,0.3-0.1,0.7-0.2,1c-0.2,0.8-0.9,1.3-1.7,1.3h-0.1c-0.1,0-0.3,0-0.4-0.1l0.1-1     c0.6-1.8,1.3-2.7,2.3-2.7c0.1,0,0.3,0,0.4,0c0.6,0.2,1,0.9,1,1.5v0.3l-0.2,2.6c0,0.5,0.1,1.1,0.3,1.6c0.5,1,1.5,1.6,2.7,1.7h0.2     c1.1-0.1,2.1-0.6,2.7-1.5C146.1,41.8,146.2,42.6,146.2,43.3L146.2,43.3z M142.7,30.4c0.4,0.1,0.8,0.3,1.2,0.6     c1.6,1.3,2.6,3.3,2.6,5.4c0,1.1-0.3,2.1-0.9,3h0l-1.9-4.9C143.3,33.2,142.9,31.8,142.7,30.4L142.7,30.4z M134.4,35.3     c0-1.3,0.5-2.5,1.3-3.4c1.1-1.2,2.7-1.9,4.3-2h0.3c0.7,0,1.3,0.1,2,0.3c0.2,0.9,0.3,1.7,0.5,2.3c0.4,1.4,1.2,3.8,2.6,7.2v0     c-0.5,0.6-1.2,1-2,1h-0.3c-0.2,0-0.4,0-0.7-0.1c-1-0.4-1.6-1.4-1.5-2.4c0-0.1,0.1-0.9,0.2-2.4c0-0.2,0-0.4,0-0.5     c-0.3-1.2-0.8-1.9-1.5-1.9h-0.1c-1,0.1-1.9,0.8-2.4,1.7c-0.5,1-0.9,2.2-1,3.3c-1-0.5-1.7-1.6-1.6-2.8L134.4,35.3z"></path>
			<path id="Path_148" d="M144.9,76.2c0,0.9,0.1,1.4,0.1,1.5c0,0.1,0,0.2,0,0.3c-0.1,0.9-0.4,1.3-1,1.3c-0.4,0-0.7-0.2-0.9-0.5     c-0.5-1.2-0.8-2.4-0.8-3.7c0-0.5,0-1.1,0.1-1.6c0.4-0.2,0.8-0.4,1.2-0.6c0.5-0.4,1-0.9,1.4-1.4c1.2-1.9,1.9-4.1,1.9-6.3     c0-1.3-0.3-2.5-0.9-3.7c0.5-1.1,0.7-2.4,0.8-3.6c0-0.6-0.1-1.1-0.2-1.7c-0.6-1.9-2.3-3.1-4.3-3c-2.5,0-4.4,1.7-5.8,5.1     c-0.4,1.4-0.6,2.8-0.7,4.2c0,0.1,0,0.2,0,0.3v0.6h-0.1c-1.3,0.5-2,1.9-2.1,4.3c0,0.5,0.1,0.9,0.1,1.3v0.1h0v0     c-0.5-1.1-0.7-2.3-0.8-3.5c0.1-2.5,0.7-5,1.6-7.4c0.7-1.4,1.1-2.9,1.3-4.4c0-0.1,0-0.3-0.1-0.9c-0.2-0.9-1-1.6-2-1.7h-0.2     c-0.1,0-0.3,0-0.5,0c-1,0.4-1.7,1.4-1.6,2.5v0.2c0,0.3,0.1,1.2,0.2,2.9c0,0.9-0.3,1.8-0.8,2.6h0c1.2-0.9,1.9-2.3,1.8-3.9     l-0.1-2.2V53c0-1,0.4-1.4,1.1-1.4c0.2,0,0.4,0,0.6,0.1c0.7,0.4,1.2,1.2,1.1,2v0.1c0,0.7-0.2,1.4-0.4,2c-1.4,3.1-2.2,6.3-2.4,9.7     c0,1.9,0.5,3.7,1.4,5.3c1.2,1.9,3.2,3.1,5.4,3.1h0.5c0.6,0,1.2-0.1,1.8-0.3c-0.1,0.4-0.1,0.8-0.1,1.2v0.7c0,0.8,0.1,1.6,0.3,2.4     c0.6,1.7,1.4,2.5,2.5,2.5h0.2c0.2,0,0.3,0,0.5-0.1c1.1-0.4,1.6-1.5,1.6-3.2c-0.1-1.6-0.1-2.7-0.1-3.1V74c0-0.7,0.2-1.4,0.7-2v0     c-0.1,0-0.1,0-0.1,0.1C145.8,72.7,144.7,74.4,144.9,76.2z M146.5,65.8L146.5,65.8c0,1.1-0.3,2.2-0.8,3.1c-0.6,1.3-1.7,2.3-3,2.9     c0-1.1,1-4.2,2.9-9.1h0C146.3,63.7,146.6,64.7,146.5,65.8z M138.8,65c-0.2-1-1.1-1.7-2.1-1.7c-0.1,0-0.3,0-0.4,0h0v-0.4     c0-0.5,0-0.9,0.1-1.3c0.2-1.6,0.9-3.1,1.9-4.3c1-1.2,2.4-1.9,4-1.9h0.4c0.5,0,1,0.1,1.5,0.3c1.3,0.5,2.2,1.8,2.1,3.2v0.2     c0,0.7-0.1,1.4-0.3,2.1c-0.6-0.9-1.7-1.5-2.8-1.5c-0.1,0-0.3,0-0.7,0.1c-1.5,0.3-2.5,1.6-2.4,3.2v0c0.2,1.6,0.2,2.5,0.2,2.7v0.2     c0,0.2,0,0.5-0.1,0.7c-0.2,0.6-0.7,1-1.3,1c-0.8-0.1-1.5-0.5-1.8-1.2c-0.4-0.8-0.7-1.6-0.7-2.5c0.2-0.1,0.3-0.1,0.5-0.1     c0,0,0.1,0,0.3,0c1,0.2,1.7,1.2,1.6,2.2c0,0,0,0,0.1,0.1l0-0.1v-0.2C138.8,65.4,138.8,65.2,138.8,65z M140.2,72.3     c-1.2,0-2.4-0.4-3.4-1c-1.5-1-2.4-2.6-2.4-4.4v-0.3c0-0.6,0.2-1.2,0.5-1.8c0.3-0.4,0.7-0.8,1.1-1c0.1,0.8,0.2,1.5,0.5,2.2     c0.7,1.9,1.7,2.8,2.9,2.8c0.2,0,0.3,0,0.5-0.1c0.8-0.5,1.3-1.4,1.2-2.4c-0.1-1.5-0.2-2.3-0.2-2.4c0-0.7,0.2-1.4,0.6-1.9     c0.4-0.5,1.1-0.7,1.7-0.7c0.8,0,1.6,0.4,2.1,1.1c-0.6,1.5-1.2,3.3-1.9,5.2c-0.5,1.4-0.8,2.9-1.1,4.3     C141.7,72.2,141,72.3,140.2,72.3L140.2,72.3z"></path>
			<path id="Path_149" d="M316.2,54v-0.3c0-0.3,0-0.6-0.1-0.9c-0.2-1-1-1.7-2-1.7c-0.3,0-0.6,0.1-0.9,0.2c-0.9,0.4-1.4,1.4-1.3,2.4     c0,0.6,0.1,1.2,0.3,1.8c0.9,2.5,1.4,3.8,1.4,3.9c0.6,2,1,4,1.1,6.1c0,1.2-0.3,2.4-0.8,3.5h0v0c0.1-0.8,0.1-1.3,0.1-1.4     c0-1.1-0.2-2.1-0.7-3.1c-0.3-0.6-0.9-1-1.5-1.2v-0.6c0-0.1,0-0.2,0-0.3c0-1.5-0.3-2.9-0.7-4.3c-1.4-3.3-3.3-4.9-5.6-4.9h-0.2     c-0.8,0-1.6,0.2-2.3,0.6c-1.3,0.9-2.1,2.4-2.1,3.9c0.1,1.3,0.3,2.5,0.8,3.7c-0.6,1.1-0.9,2.4-0.9,3.6c0,1.8,0.5,3.6,1.2,5.2     c0.6,1.4,1.8,2.6,3.2,3.2c0.1,0,0.2,0.5,0.2,1.6c0,0.5,0,0.9-0.1,1.4c-0.3,1.9-0.8,2.9-1.5,2.9h-0.1c-0.6-0.1-0.9-0.7-0.9-1.6     c0-0.3,0-0.8,0.1-1.6c0-0.9-0.2-1.7-0.6-2.5c-0.5-0.8-1.3-1.4-2.2-1.7c0,0.1,0,0.2,0.1,0.2c0.4,0.5,0.6,1.1,0.6,1.8     c0,0.5,0,1.6-0.1,3.2c0,0.6,0.1,1.2,0.3,1.8c0.4,1,1,1.5,1.7,1.5h0.1l0.1,0c0,0,0,0,0,0h0.2c0.3,0,0.6-0.1,0.8-0.2     c1.3-1.1,2-2.9,1.9-4.6v-0.8c0-0.4,0-0.8-0.1-1.3c0.7,0.2,1.4,0.3,2.2,0.3c1.4,0,2.8-0.5,4-1.4c2.1-1.7,3.3-4.3,3.1-7     c-0.1-2.6-0.6-5.1-1.6-7.5c-0.7-1.3-1.1-2.7-1.3-4.1v-0.2c0-0.2,0-0.4,0.1-0.6c0.4-1,0.9-1.5,1.7-1.5c0.8,0,1.2,0.5,1.2,1.4v0.3     l-0.1,2.2c-0.1,1.5,0.6,3,1.9,3.9c-0.5-0.8-0.7-1.7-0.8-2.7C316.2,55.1,316.2,54.2,316.2,54z M301.7,58.9v-0.2     c0-0.5,0.1-1.1,0.3-1.6c0.7-1.3,2.1-2.1,3.5-1.9c1.7,0,3.3,0.8,4.3,2.2c1.1,1.6,1.8,3.5,1.8,5.5v0.4l-0.2,0H311     c-0.2,0-0.4,0-0.6,0.1c-0.9,0.4-1.5,1.3-1.4,2.2v0.2h0.1c0-0.3,0.1-0.7,0.2-1c0.2-0.8,0.9-1.3,1.7-1.3h0.1c0.1,0,0.3,0,0.4,0.1     l-0.1,1c-0.6,1.8-1.3,2.7-2.3,2.7c-0.1,0-0.3,0-0.4,0c-0.6-0.2-1.1-0.9-1-1.6v-0.3l0.2-2.6c0-0.5-0.1-1.1-0.3-1.6     c-0.5-1-1.5-1.6-2.7-1.7h-0.2c-1.1,0.1-2.1,0.6-2.7,1.5C301.8,60.3,301.7,59.6,301.7,58.9L301.7,58.9z M305.1,71.8     c-0.4-0.1-0.8-0.3-1.2-0.6c-1.6-1.3-2.6-3.3-2.6-5.4c0-1.1,0.3-2.1,0.9-3h0l1.9,4.9C304.5,69,304.9,70.4,305.1,71.8L305.1,71.8z      M313.4,66.8c0,1.3-0.5,2.5-1.3,3.4c-1.1,1.2-2.7,1.9-4.3,2h-0.3c-0.7,0-1.3-0.1-2-0.3c-0.2-0.9-0.3-1.7-0.5-2.3     c-0.4-1.4-1.2-3.8-2.6-7.2v0c0.5-0.6,1.2-1,2-1h0.3c0.2,0,0.4,0,0.7,0.1c1,0.4,1.6,1.4,1.5,2.4c0,0.1-0.1,0.9-0.2,2.4     c0,0.2,0,0.4,0,0.5c0.3,1.2,0.8,1.9,1.6,1.9h0.1c1-0.1,1.9-0.8,2.4-1.7c0.5-1,0.9-2.2,1-3.3c1,0.5,1.7,1.6,1.6,2.8L313.4,66.8z"></path>
			<path id="Path_150" d="M309.9,49.7c-0.1,0-0.2,0-0.3,0c-0.6,0.1-1.1,0.7-1.1,1.3l0,0.3c0.1,0.6,0.7,1.1,1.3,1.1     c0.1,0,0.2,0,0.3,0c0.6-0.1,1.1-0.7,1.1-1.4c0-0.1,0-0.3-0.1-0.4C311,50.1,310.5,49.7,309.9,49.7z"></path>
			<path id="Path_151" d="M302.9,26c0-0.9-0.1-1.4-0.1-1.5c0-0.1,0-0.2,0-0.3c0.1-0.9,0.4-1.3,1-1.3c0.4,0,0.7,0.2,0.9,0.5     c0.5,1.2,0.8,2.4,0.8,3.7c0,0.5,0,1.1-0.1,1.6c-0.4,0.2-0.8,0.4-1.2,0.6c-0.5,0.4-1,0.9-1.4,1.4c-1.2,1.9-1.9,4.1-1.9,6.3     c0,1.3,0.3,2.5,0.9,3.7c-0.5,1.1-0.7,2.4-0.8,3.6c0,0.6,0.1,1.1,0.2,1.7c0.6,1.9,2.3,3.1,4.3,3c2.5,0,4.4-1.7,5.8-5.1     c0.4-1.3,0.6-2.7,0.7-4.2c0-0.1,0-0.2,0-0.3v-0.6h0.1c1.3-0.5,2-1.9,2.1-4.3c0-0.5-0.1-0.9-0.1-1.3v-0.1h0v0     c0.5,1.1,0.7,2.3,0.8,3.5c-0.1,2.5-0.7,5-1.6,7.4c-0.7,1.4-1.1,2.9-1.3,4.4c0,0.1,0,0.3,0.1,0.9c0.2,0.9,1,1.6,2,1.7h0.2     c0.1,0,0.3,0,0.5,0c1-0.4,1.7-1.4,1.6-2.5v-0.2c0-0.3-0.1-1.2-0.2-2.9c0-0.9,0.3-1.8,0.8-2.6h0c-1.2,0.9-1.9,2.3-1.8,3.9l0.1,2.2     v0.4c0,1-0.4,1.4-1.1,1.4c-0.2,0-0.4,0-0.6-0.1c-0.7-0.4-1.2-1.2-1.1-2v-0.1c0-0.7,0.2-1.4,0.4-2c1.4-3.1,2.2-6.3,2.4-9.7     c0-1.9-0.5-3.7-1.4-5.3c-1.2-1.9-3.2-3.1-5.4-3.1h-0.5c-0.6,0-1.2,0.1-1.8,0.3c0.1-0.4,0.1-0.8,0.1-1.2v-0.7     c0-0.8-0.1-1.6-0.3-2.4c-0.6-1.7-1.4-2.5-2.5-2.5h-0.2c-0.2,0-0.3,0-0.5,0.1c-1.1,0.4-1.6,1.5-1.6,3.2c0.1,1.6,0.1,2.7,0.1,3.1     v0.1c0,0.7-0.2,1.4-0.7,2v0c0.1,0,0.1,0,0.1-0.1C302,29.5,303.1,27.8,302.9,26z M301.3,36.4L301.3,36.4c0-1.1,0.3-2.2,0.8-3.1     c0.6-1.3,1.7-2.3,3-2.9c0,1.1-1,4.2-2.9,9.1h0C301.6,38.5,301.3,37.4,301.3,36.4z M309.1,37.2c0.2,1,1.1,1.7,2.1,1.7     c0.1,0,0.3,0,0.4,0h0v0.4c0,0.5,0,0.9-0.1,1.3c-0.2,1.6-0.9,3.1-1.9,4.3c-1,1.2-2.4,1.9-4,1.9h-0.4c-0.5,0-1-0.1-1.5-0.3     c-1.3-0.5-2.2-1.8-2.1-3.2v-0.2c0-0.7,0.1-1.4,0.3-2.1c0.6,0.9,1.7,1.5,2.8,1.5c0.1,0,0.3,0,0.7-0.1c1.5-0.3,2.5-1.6,2.4-3.2v0     c-0.2-1.6-0.2-2.5-0.2-2.7v-0.2c0-0.2,0-0.5,0.1-0.7c0.2-0.6,0.7-1,1.3-1c0.8,0.1,1.5,0.5,1.8,1.2c0.4,0.8,0.7,1.6,0.7,2.5     c-0.2,0.1-0.3,0.1-0.5,0.1c0,0-0.1,0-0.3,0c-1-0.2-1.7-1.2-1.6-2.2c0,0,0,0-0.1-0.1l0,0.1v0.2C309,36.8,309,37,309.1,37.2     L309.1,37.2z M307.6,29.9c1.2,0,2.4,0.4,3.4,1c1.5,1,2.4,2.6,2.4,4.4v0.3c0,0.6-0.2,1.2-0.5,1.8c-0.3,0.4-0.7,0.8-1.1,1     c-0.1-0.8-0.2-1.5-0.5-2.2c-0.7-1.9-1.7-2.8-2.9-2.8c-0.2,0-0.3,0-0.5,0.1c-0.8,0.5-1.3,1.4-1.2,2.4c0.1,1.5,0.2,2.3,0.2,2.4     c0,0.7-0.2,1.4-0.6,1.9c-0.4,0.5-1.1,0.7-1.7,0.7c-0.8,0-1.6-0.4-2.1-1.1c0.6-1.5,1.2-3.3,1.9-5.2c0.5-1.4,0.8-2.9,1.1-4.3     C306.2,30,306.9,29.9,307.6,29.9L307.6,29.9z"></path>
			<path id="Path_152" d="M302,49.7c-0.1,0-0.2,0-0.3,0c-0.6,0.1-1.1,0.7-1.1,1.3c0,0.1,0,0.3,0,0.4c0.2,0.6,0.7,1,1.3,1.1     c0.1,0,0.3,0,0.4,0c0.6-0.1,1.1-0.7,1.1-1.4c0-0.1,0-0.2,0-0.3C303.3,50.1,302.7,49.7,302,49.7z"></path>
			<path id="Path_153" d="M149.3,19.2l0.2,0.4c11.8-4.4,23.9-7.8,36.3-10c37.3-6.6,75.8-3.1,111.3,10l0.1-0.4     c-11.4-5.8-23.4-10-35.9-12.7C224.1-1.9,183.4,1.6,149.3,19.2z"></path>
			<path id="Path_154" d="M260.8,91.2c-37.3,6.6-75.8,3.1-111.3-10l-0.2,0.4c11.4,5.8,23.4,10,35.9,12.7c37.2,8.4,77.9,4.9,112-12.7     l-0.1-0.4C285.3,85.6,273.1,89,260.8,91.2z"></path>
		</g>
	</g>
</g>
</svg>
